<svg width="48" height="47" viewBox="0 0 48 47" fill="none" xmlns="http://www.w3.org/2000/svg">
<g clip-path="url(#clip0_0_18018)">
<path fill-rule="evenodd" clip-rule="evenodd" d="M23.9915 0C18.294 0.00295613 12.7832 2.02092 8.44471 5.69305C4.10618 9.36517 1.22277 14.452 0.310056 20.044C-0.602662 25.636 0.51482 31.3684 3.46271 36.2164C6.4106 41.0643 10.9966 44.7115 16.4008 46.5059C17.5931 46.7272 18.0422 45.9883 18.0422 45.36C18.0422 44.7317 18.0183 42.91 18.0104 40.9184C11.3338 42.3608 9.92294 38.101 9.92294 38.101C8.83402 35.3349 7.26024 34.6078 7.26024 34.6078C5.0824 33.1299 7.42319 33.1576 7.42319 33.1576C9.83552 33.3275 11.1033 35.6194 11.1033 35.6194C13.2414 39.2667 16.7188 38.2116 18.0859 37.5952C18.3005 36.0501 18.9244 34.999 19.612 34.4023C14.2786 33.8017 8.67504 31.7548 8.67504 22.6108C8.64199 20.2394 9.52701 17.9461 11.147 16.2054C10.9006 15.6047 10.0779 13.1785 11.3815 9.88286C11.3815 9.88286 13.3964 9.24271 17.9826 12.3289C21.9163 11.2592 26.0667 11.2592 30.0004 12.3289C34.5827 9.24271 36.5936 9.88286 36.5936 9.88286C37.9011 13.1706 37.0784 15.5968 36.832 16.2054C38.4571 17.9464 39.344 20.2437 39.3079 22.6187C39.3079 31.7824 33.6924 33.8017 28.3512 34.3905C29.2096 35.1334 29.9766 36.5836 29.9766 38.8122C29.9766 42.0051 29.9488 44.5736 29.9488 45.36C29.9488 45.9962 30.3819 46.7391 31.598 46.5059C37.0029 44.7113 41.5894 41.0634 44.5372 36.2147C47.485 31.3659 48.6019 25.6326 47.6882 20.0401C46.7744 14.4476 43.8896 9.36071 39.5496 5.68921C35.2097 2.01771 29.6977 0.00108239 23.9994 0H23.9915Z" fill="white"/>
<path d="M8.90316 33.9358C8.85256 34.0532 8.66569 34.0884 8.51387 34.0062C8.36204 33.924 8.24916 33.7714 8.30366 33.6501C8.35816 33.5288 8.54113 33.4974 8.69295 33.5796C8.84478 33.6618 8.96156 33.8184 8.90316 33.9358Z" fill="white"/>
<path d="M9.85696 35.0042C9.77634 35.045 9.68411 35.0564 9.59605 35.0365C9.50799 35.0165 9.42958 34.9663 9.37424 34.8946C9.22241 34.7303 9.19125 34.5033 9.30804 34.4015C9.42483 34.2997 9.63507 34.3467 9.78689 34.5111C9.93872 34.6755 9.97375 34.9025 9.85696 35.0042Z" fill="white"/>
<path d="M10.7836 36.3623C10.6395 36.464 10.3942 36.3623 10.258 36.1588C10.2203 36.1223 10.1904 36.0785 10.1699 36.0301C10.1494 35.9816 10.1389 35.9296 10.1389 35.877C10.1389 35.8244 10.1494 35.7723 10.1699 35.7239C10.1904 35.6755 10.2203 35.6317 10.258 35.5952C10.402 35.4973 10.6473 35.5952 10.7836 35.7948C10.9198 35.9944 10.9237 36.2605 10.7836 36.3623Z" fill="white"/>
<path d="M12.041 37.6773C11.9125 37.8221 11.6517 37.7829 11.4376 37.5872C11.2235 37.3916 11.1728 37.1254 11.3013 36.9845C11.4298 36.8436 11.6906 36.8828 11.9125 37.0746C12.1344 37.2663 12.1772 37.5364 12.041 37.6773Z" fill="white"/>
<path d="M13.8045 38.4444C13.7461 38.6283 13.4813 38.7105 13.2166 38.6322C12.9519 38.5539 12.7767 38.3348 12.8273 38.1469C12.8779 37.959 13.1465 37.8729 13.4152 37.9591C13.6838 38.0452 13.8551 38.2526 13.8045 38.4444Z" fill="white"/>
<path d="M15.7276 38.5774C15.7276 38.7692 15.5096 38.9336 15.2293 38.9375C14.949 38.9414 14.7194 38.7848 14.7194 38.5931C14.7194 38.4013 14.9374 38.2369 15.2176 38.233C15.4979 38.2291 15.7276 38.3817 15.7276 38.5774Z" fill="white"/>
<path d="M17.5184 38.2761C17.5535 38.4678 17.3588 38.6674 17.0785 38.7144C16.7982 38.7614 16.553 38.6479 16.5179 38.46C16.4829 38.2721 16.6853 38.0686 16.9578 38.0178C17.2303 37.9669 17.4834 38.0843 17.5184 38.2761Z" fill="white"/>
</g>
<defs>
<clipPath id="clip0_0_18018">
<rect width="47.9989" height="46.5498" fill="white"/>
</clipPath>
</defs>
</svg>
