<svg width="1647" height="729" viewBox="0 0 1647 729" fill="none" xmlns="http://www.w3.org/2000/svg">
<rect width="1647" height="729" fill="#F5F5F5"/>
<g filter="url(#filter0_d_2_13477)">
<rect x="2" y="1" width="1643" height="725" rx="8" fill="#F9FAFB"/>
<rect x="2.5" y="1.5" width="1642" height="724" rx="7.5" stroke="#D1D5DB"/>
<rect x="2" y="329" width="1643" height="397" fill="#111928"/>
<g clip-path="url(#clip0_2_13477)">
<path d="M131 84C131 70.7452 120.255 60 107 60C93.7452 60 83 70.7452 83 84C83 95.9789 91.7764 105.908 103.25 107.708V90.9375H97.1562V84H103.25V78.7125C103.25 72.6975 106.833 69.375 112.315 69.375C114.94 69.375 117.688 69.8438 117.688 69.8438V75.75H114.661C111.68 75.75 110.75 77.6002 110.75 79.5V84H117.406L116.342 90.9375H110.75V107.708C122.224 105.908 131 95.9789 131 84Z" fill="#1877F2"/>
<path d="M116.342 90.9375L117.406 84H110.75V79.5C110.75 77.602 111.68 75.75 114.661 75.75H117.688V69.8438C117.688 69.8438 114.941 69.375 112.315 69.375C106.833 69.375 103.25 72.6975 103.25 78.7125V84H97.1562V90.9375H103.25V107.708C105.735 108.097 108.265 108.097 110.75 107.708V90.9375H116.342Z" fill="white"/>
</g>
<path d="M226.095 103.501C244.208 103.501 254.116 88.4946 254.116 75.4809C254.116 75.0546 254.116 74.6303 254.087 74.2079C256.014 72.8138 257.678 71.0877 259 69.1103C257.203 69.9071 255.296 70.4294 253.344 70.6598C255.4 69.4291 256.938 67.4933 257.673 65.2127C255.74 66.3599 253.625 67.1684 251.42 67.6031C249.935 66.0243 247.971 64.9788 245.832 64.6285C243.694 64.2782 241.499 64.6426 239.588 65.6652C237.677 66.6879 236.156 68.3119 235.261 70.2858C234.367 72.2598 234.147 74.4737 234.637 76.5849C230.722 76.3885 226.892 75.371 223.395 73.5983C219.898 71.8257 216.814 69.3376 214.341 66.2956C213.081 68.4636 212.696 71.0301 213.262 73.4725C213.829 75.9148 215.305 78.0495 217.39 79.4418C215.822 79.3959 214.289 78.9731 212.92 78.2092V78.334C212.921 80.6077 213.708 82.8112 215.148 84.5707C216.588 86.3303 218.592 87.5375 220.821 87.9878C219.371 88.3832 217.85 88.441 216.374 88.1567C217.004 90.1134 218.229 91.8244 219.878 93.0506C221.528 94.2768 223.52 94.9569 225.575 94.9958C223.533 96.6007 221.195 97.7873 218.694 98.4878C216.193 99.1882 213.578 99.3886 211 99.0777C215.504 101.968 220.744 103.501 226.095 103.494" fill="#1DA1F2"/>
<g clip-path="url(#clip1_2_13477)">
<path d="M363 64.3219C369.413 64.3219 370.172 64.35 372.694 64.4625C375.038 64.5656 376.303 64.9594 377.147 65.2875C378.263 65.7188 379.069 66.2438 379.903 67.0781C380.747 67.9219 381.263 68.7188 381.694 69.8344C382.022 70.6781 382.416 71.9531 382.519 74.2875C382.631 76.8187 382.659 77.5781 382.659 83.9813C382.659 90.3938 382.631 91.1531 382.519 93.675C382.416 96.0188 382.022 97.2844 381.694 98.1281C381.263 99.2438 380.737 100.05 379.903 100.884C379.059 101.728 378.263 102.244 377.147 102.675C376.303 103.003 375.028 103.397 372.694 103.5C370.163 103.612 369.403 103.641 363 103.641C356.588 103.641 355.828 103.612 353.306 103.5C350.963 103.397 349.697 103.003 348.853 102.675C347.738 102.244 346.931 101.719 346.097 100.884C345.253 100.041 344.738 99.2438 344.306 98.1281C343.978 97.2844 343.584 96.0094 343.481 93.675C343.369 91.1438 343.341 90.3844 343.341 83.9813C343.341 77.5688 343.369 76.8094 343.481 74.2875C343.584 71.9437 343.978 70.6781 344.306 69.8344C344.738 68.7188 345.263 67.9125 346.097 67.0781C346.941 66.2344 347.738 65.7188 348.853 65.2875C349.697 64.9594 350.972 64.5656 353.306 64.4625C355.828 64.35 356.588 64.3219 363 64.3219ZM363 60C356.484 60 355.669 60.0281 353.109 60.1406C350.559 60.2531 348.806 60.6656 347.288 61.2562C345.703 61.875 344.363 62.6906 343.031 64.0312C341.691 65.3625 340.875 66.7031 340.256 68.2781C339.666 69.8063 339.253 71.55 339.141 74.1C339.028 76.6687 339 77.4844 339 84C339 90.5156 339.028 91.3312 339.141 93.8906C339.253 96.4406 339.666 98.1938 340.256 99.7125C340.875 101.297 341.691 102.638 343.031 103.969C344.363 105.3 345.703 106.125 347.278 106.734C348.806 107.325 350.55 107.737 353.1 107.85C355.659 107.962 356.475 107.991 362.991 107.991C369.506 107.991 370.322 107.962 372.881 107.85C375.431 107.737 377.184 107.325 378.703 106.734C380.278 106.125 381.619 105.3 382.95 103.969C384.281 102.638 385.106 101.297 385.716 99.7219C386.306 98.1938 386.719 96.45 386.831 93.9C386.944 91.3406 386.972 90.525 386.972 84.0094C386.972 77.4938 386.944 76.6781 386.831 74.1188C386.719 71.5688 386.306 69.8156 385.716 68.2969C385.125 66.7031 384.309 65.3625 382.969 64.0312C381.638 62.7 380.297 61.875 378.722 61.2656C377.194 60.675 375.45 60.2625 372.9 60.15C370.331 60.0281 369.516 60 363 60Z" fill="#000100"/>
<path d="M363 71.6719C356.194 71.6719 350.672 77.1938 350.672 84C350.672 90.8062 356.194 96.3281 363 96.3281C369.806 96.3281 375.328 90.8062 375.328 84C375.328 77.1938 369.806 71.6719 363 71.6719ZM363 91.9969C358.584 91.9969 355.003 88.4156 355.003 84C355.003 79.5844 358.584 76.0031 363 76.0031C367.416 76.0031 370.997 79.5844 370.997 84C370.997 88.4156 367.416 91.9969 363 91.9969Z" fill="#000100"/>
<path d="M378.694 71.1844C378.694 72.7782 377.4 74.0625 375.816 74.0625C374.222 74.0625 372.938 72.7688 372.938 71.1844C372.938 69.5907 374.231 68.3063 375.816 68.3063C377.4 68.3063 378.694 69.6 378.694 71.1844Z" fill="#000100"/>
</g>
<g clip-path="url(#clip2_2_13477)">
<path d="M511.457 60H470.543C469.604 60 468.702 60.3733 468.038 61.0378C467.373 61.7023 467 62.6036 467 63.5433V104.457C467 105.396 467.373 106.298 468.038 106.962C468.702 107.627 469.604 108 470.543 108H511.457C512.396 108 513.298 107.627 513.962 106.962C514.627 106.298 515 105.396 515 104.457V63.5433C515 62.6036 514.627 61.7023 513.962 61.0378C513.298 60.3733 512.396 60 511.457 60ZM481.307 100.89H474.09V77.9667H481.307V100.89ZM477.693 74.79C476.875 74.7854 476.076 74.5384 475.397 74.0802C474.719 73.622 474.192 72.9731 473.882 72.2154C473.572 71.4577 473.493 70.6252 473.656 69.8229C473.819 69.0206 474.216 68.2846 474.796 67.7076C475.377 67.1306 476.116 66.7385 476.919 66.5809C477.722 66.4233 478.554 66.5072 479.31 66.822C480.066 67.1368 480.711 67.6683 481.165 68.3496C481.619 69.0309 481.861 69.8314 481.86 70.65C481.868 71.1981 481.765 71.7421 481.558 72.2496C481.351 72.7571 481.044 73.2178 480.655 73.6041C480.266 73.9905 479.804 74.2946 479.295 74.4983C478.786 74.702 478.241 74.8012 477.693 74.79ZM507.907 100.91H500.693V88.3867C500.693 84.6933 499.123 83.5533 497.097 83.5533C494.957 83.5533 492.857 85.1667 492.857 88.48V100.91H485.64V77.9833H492.58V81.16H492.673C493.37 79.75 495.81 77.34 499.533 77.34C503.56 77.34 507.91 79.73 507.91 86.73L507.907 100.91Z" fill="#0A66C2"/>
</g>
<g clip-path="url(#clip3_2_13477)">
<path d="M642.532 84.5528C642.532 82.9214 642.4 81.2811 642.118 79.6761H619.48V88.9181H632.443C631.906 91.8988 630.177 94.5356 627.646 96.2111V102.208H635.38C639.922 98.0278 642.532 91.8547 642.532 84.5528Z" fill="#4285F4"/>
<path d="M619.48 108.002C625.953 108.002 631.412 105.876 635.389 102.208L627.655 96.2111C625.503 97.675 622.725 98.5039 619.489 98.5039C613.228 98.5039 607.919 94.2798 606.014 88.6006H598.033V94.7825C602.107 102.887 610.406 108.002 619.48 108.002Z" fill="#34A853"/>
<path d="M606.005 88.6006C605 85.6199 605 82.3922 606.005 79.4115V73.2296H598.033C594.629 80.0112 594.629 88.0009 598.033 94.7825L606.005 88.6006Z" fill="#FBBC04"/>
<path d="M619.48 69.4993C622.902 69.4464 626.209 70.7339 628.687 73.0973L635.539 66.2452C631.2 62.171 625.441 59.9311 619.48 60.0016C610.406 60.0016 602.107 65.1164 598.033 73.2296L606.005 79.4115C607.901 73.7235 613.219 69.4993 619.48 69.4993Z" fill="#EA4335"/>
</g>
<g clip-path="url(#clip4_2_13477)">
<path d="M770.044 72.3709C769.773 71.3497 769.238 70.4178 768.493 69.6682C767.748 68.9187 766.82 68.3779 765.8 68.1C762.048 67.0909 747.048 67.0909 747.048 67.0909C747.048 67.0909 732.048 67.0909 728.295 68.1C727.275 68.3779 726.347 68.9187 725.602 69.6682C724.857 70.4178 724.323 71.3497 724.051 72.3709C723.048 76.14 723.048 84 723.048 84C723.048 84 723.048 91.86 724.051 95.6291C724.323 96.6503 724.857 97.5822 725.602 98.3318C726.347 99.0813 727.275 99.6221 728.295 99.9C732.048 100.909 747.048 100.909 747.048 100.909C747.048 100.909 762.048 100.909 765.8 99.9C766.82 99.6221 767.748 99.0813 768.493 98.3318C769.238 97.5822 769.773 96.6503 770.044 95.6291C771.048 91.86 771.048 84 771.048 84C771.048 84 771.048 76.14 770.044 72.3709Z" fill="#FF0302"/>
<path d="M742.139 91.1373V76.8628L754.684 84.0001L742.139 91.1373Z" fill="#FEFEFE"/>
</g>
<g clip-path="url(#clip5_2_13477)">
<path d="M894.584 97.4071C893.858 99.0841 892.999 100.628 892.003 102.047C890.646 103.982 889.535 105.321 888.679 106.065C887.352 107.285 885.929 107.91 884.406 107.946C883.313 107.946 881.995 107.635 880.46 107.004C878.92 106.376 877.505 106.065 876.211 106.065C874.854 106.065 873.399 106.376 871.842 107.004C870.283 107.635 869.027 107.964 868.067 107.996C866.606 108.059 865.151 107.416 863.698 106.065C862.77 105.256 861.61 103.869 860.221 101.905C858.73 99.807 857.504 97.3745 856.544 94.6013C855.516 91.6058 855 88.7051 855 85.8969C855 82.6801 855.695 79.9057 857.087 77.5807C858.182 75.7132 859.637 74.2401 861.459 73.1586C863.281 72.0772 865.249 71.5261 867.369 71.4908C868.529 71.4908 870.05 71.8497 871.941 72.5548C873.826 73.2623 875.036 73.6212 875.567 73.6212C875.963 73.6212 877.308 73.2016 879.587 72.3652C881.743 71.5895 883.562 71.2683 885.052 71.3948C889.091 71.7208 892.125 73.3127 894.142 76.1808C890.531 78.3692 888.744 81.4342 888.78 85.3663C888.812 88.429 889.923 90.9777 892.107 93.0013C893.097 93.9405 894.202 94.6664 895.431 95.182C895.165 95.9553 894.883 96.696 894.584 97.4071ZM885.322 60.9608C885.322 63.3613 884.445 65.6027 882.697 67.6773C880.587 70.1436 878.036 71.5688 875.269 71.3439C875.233 71.0559 875.213 70.7528 875.213 70.4343C875.213 68.1298 876.216 65.6635 877.998 63.6469C878.887 62.6259 880.018 61.777 881.39 61.0997C882.759 60.4326 884.054 60.0637 885.272 60.0005C885.307 60.3214 885.322 60.6424 885.322 60.9608V60.9608Z" fill="#111928"/>
</g>
<path d="M1023.59 95.3594C1016.16 91.7601 1014.98 86.203 1014.92 85.7908C1014.86 85.2915 1014.79 84.8989 1015.34 84.391C1015.87 83.9003 1018.23 82.4417 1018.88 81.9854C1019.96 81.2297 1020.44 80.4753 1020.08 79.5478C1019.84 78.9062 1019.24 78.6646 1018.61 78.6646C1018.41 78.6652 1018.22 78.6874 1018.02 78.7308C1016.84 78.9884 1015.68 79.5834 1015.02 79.7441C1014.94 79.7648 1014.85 79.7759 1014.77 79.7772C1014.41 79.7772 1014.28 79.619 1014.31 79.1909C1014.4 77.893 1014.57 75.3597 1014.37 72.9933C1014.09 69.7375 1013.04 68.1243 1011.79 66.6976C1011.19 66.0057 1008.4 63.0333 1003 63.0333C997.604 63.0333 994.811 66.0057 994.213 66.689C992.964 68.1158 991.916 69.7289 991.637 72.9847C991.432 75.3511 991.616 77.8831 991.692 79.1823C991.717 79.5895 991.592 79.7687 991.236 79.7687C991.153 79.7672 991.071 79.7561 990.991 79.7355C990.325 79.5748 989.172 78.9799 987.985 78.7222C987.791 78.6788 987.594 78.6566 987.395 78.656C986.764 78.656 986.169 78.9013 985.924 79.5392C985.573 80.4667 986.046 81.2211 987.13 81.9768C987.784 82.4332 990.14 83.8905 990.671 84.3825C991.22 84.8903 991.149 85.2829 991.085 85.7822C991.033 86.2005 989.847 91.7577 982.415 95.3508C981.98 95.5618 981.239 96.0084 982.545 96.7297C984.595 97.8632 985.96 97.7418 987.021 98.4251C987.921 99.0053 987.389 100.257 988.044 100.708C988.848 101.264 991.226 100.669 994.299 101.683C996.874 102.532 998.439 104.931 1003.01 104.931C1007.57 104.931 1009.18 102.521 1011.71 101.683C1014.78 100.669 1017.16 101.264 1017.97 100.708C1018.62 100.257 1018.09 99.0053 1018.99 98.4251C1020.05 97.7418 1021.42 97.8632 1023.47 96.7297C1024.77 96.017 1024.03 95.5704 1023.59 95.3594Z" fill="white"/>
<path d="M1026.83 94.937C1026.49 94.0292 1025.86 93.5434 1025.14 93.141C1025 93.0613 1024.87 92.9975 1024.77 92.9484C1024.55 92.8368 1024.33 92.7289 1024.11 92.6148C1021.86 91.4187 1020.1 89.9098 1018.87 88.1212C1018.53 87.6177 1018.23 87.0839 1017.98 86.5264C1017.87 86.2283 1017.88 86.059 1017.95 85.9044C1018.02 85.7854 1018.12 85.683 1018.24 85.6039C1018.63 85.3475 1019.03 85.0874 1019.3 84.912C1019.78 84.5992 1020.16 84.3514 1020.41 84.176C1021.34 83.5282 1021.98 82.84 1022.39 82.0709C1022.67 81.5394 1022.83 80.9534 1022.87 80.3527C1022.91 79.7519 1022.81 79.1505 1022.59 78.5893C1021.98 76.9749 1020.46 75.9727 1018.61 75.9727C1018.22 75.9723 1017.83 76.0134 1017.45 76.0953C1017.35 76.1174 1017.25 76.1407 1017.15 76.1665C1017.17 75.0624 1017.14 73.897 1017.04 72.75C1016.69 68.7177 1015.28 66.604 1013.81 64.9184C1012.87 63.8622 1011.76 62.9686 1010.53 62.2736C1008.29 60.9977 1005.76 60.35 1003 60.35C1000.24 60.35 997.719 60.9977 995.483 62.2736C994.247 62.9688 993.135 63.8642 992.192 64.9233C990.72 66.6089 989.308 68.7263 988.96 72.7549C988.862 73.9019 988.837 75.0735 988.853 76.1714C988.754 76.1456 988.654 76.1223 988.552 76.1003C988.171 76.0183 987.782 75.9772 987.393 75.9776C985.545 75.9776 984.018 76.9798 983.407 78.5942C983.189 79.1557 983.094 79.7575 983.129 80.3589C983.164 80.9603 983.328 81.5471 983.609 82.0794C984.015 82.8486 984.663 83.5368 985.589 84.1845C985.834 84.3563 986.218 84.6041 986.701 84.9206C986.962 85.0899 987.344 85.3377 987.718 85.5855C987.849 85.6701 987.96 85.7818 988.044 85.913C988.122 86.0737 988.125 86.2467 988.008 86.5657C987.761 87.1114 987.465 87.6341 987.124 88.1273C985.93 89.8754 984.22 91.3574 982.037 92.5436C980.881 93.157 979.679 93.5667 979.171 94.9468C978.788 95.9883 979.039 97.1734 980.011 98.1719C980.368 98.5447 980.782 98.8581 981.238 99.1006C982.185 99.6216 983.193 100.025 984.239 100.302C984.454 100.357 984.659 100.449 984.844 100.573C985.199 100.883 985.149 101.35 985.621 102.035C985.858 102.389 986.159 102.695 986.509 102.938C987.499 103.622 988.613 103.665 989.793 103.711C990.859 103.751 992.067 103.798 993.446 104.253C994.018 104.442 994.611 104.807 995.299 105.234C996.951 106.25 999.213 107.64 1003 107.64C1006.78 107.64 1009.06 106.243 1010.72 105.223C1011.41 104.804 1012 104.442 1012.55 104.258C1013.93 103.802 1015.14 103.756 1016.21 103.716C1017.39 103.67 1018.5 103.627 1019.49 102.943C1019.9 102.654 1020.25 102.277 1020.5 101.839C1020.84 101.261 1020.83 100.857 1021.15 100.575C1021.32 100.457 1021.52 100.369 1021.72 100.315C1022.78 100.038 1023.8 99.6305 1024.76 99.1031C1025.24 98.8434 1025.68 98.5022 1026.05 98.0947L1026.06 98.0799C1026.97 97.1035 1027.2 95.9528 1026.83 94.937ZM1023.46 96.7452C1021.41 97.8788 1020.05 97.7573 1018.99 98.4406C1018.09 99.0209 1018.62 100.272 1017.97 100.724C1017.16 101.279 1014.78 100.684 1011.71 101.699C1009.18 102.537 1007.56 104.946 1003 104.946C998.446 104.946 996.868 102.542 994.292 101.693C991.226 100.678 988.844 101.273 988.038 100.717C987.384 100.266 987.915 99.0147 987.015 98.4345C985.953 97.7512 984.589 97.8726 982.539 96.7452C981.233 96.0239 981.973 95.5774 982.409 95.3664C989.841 91.7671 991.027 86.2099 991.079 85.7977C991.143 85.2984 991.214 84.9059 990.665 84.398C990.134 83.9073 987.778 82.4487 987.124 81.9923C986.043 81.2367 985.567 80.4822 985.917 79.5548C986.163 78.9132 986.761 78.6715 987.389 78.6715C987.588 78.6721 987.785 78.6943 987.979 78.7378C989.166 78.9954 990.319 79.5904 990.985 79.7511C991.065 79.7717 991.147 79.7828 991.23 79.7842C991.586 79.7842 991.711 79.6051 991.686 79.1978C991.61 77.8987 991.426 75.3667 991.631 73.0003C991.912 69.7445 992.961 68.1313 994.207 66.7046C994.805 66.0188 997.617 63.0464 1002.99 63.0464C1008.37 63.0464 1011.19 66.0066 1011.79 66.6899C1013.04 68.1166 1014.09 69.7297 1014.37 72.9855C1014.57 75.3519 1014.39 77.8852 1014.31 79.1831C1014.28 79.6112 1014.41 79.7695 1014.77 79.7695C1014.85 79.7681 1014.93 79.757 1015.01 79.7363C1015.68 79.5756 1016.83 78.9807 1018.02 78.723C1018.21 78.6796 1018.41 78.6574 1018.61 78.6568C1019.24 78.6568 1019.84 78.9022 1020.08 79.5401C1020.43 80.4675 1019.96 81.2219 1018.88 81.9776C1018.22 82.434 1015.87 83.8913 1015.33 84.3833C1014.78 84.8912 1014.86 85.2837 1014.92 85.783C1014.97 86.2013 1016.16 91.7585 1023.59 95.3517C1024.03 95.5712 1024.77 96.0178 1023.46 96.7452Z" fill="#111928"/>
<g clip-path="url(#clip6_2_13477)">
<path d="M1131 108C1144.25 108 1155 97.2548 1155 84C1155 70.7452 1144.25 60 1131 60C1117.75 60 1107 70.7452 1107 84C1107 97.2548 1117.75 108 1131 108Z" fill="white"/>
<path d="M1131 60C1117.75 60 1107 70.7457 1107 84C1107 94.1728 1113.32 102.864 1122.25 106.36C1122.03 104.464 1121.85 101.541 1122.33 99.4667C1122.76 97.5901 1125.13 87.5358 1125.13 87.5358C1125.13 87.5358 1124.42 86.0938 1124.42 83.9802C1124.42 80.642 1126.36 78.1531 1128.77 78.1531C1130.82 78.1531 1131.81 79.6938 1131.81 81.5309C1131.81 83.5852 1130.51 86.6667 1129.81 89.5309C1129.24 91.921 1131.02 93.8765 1133.37 93.8765C1137.64 93.8765 1140.92 89.3728 1140.92 82.8938C1140.92 77.1457 1136.79 73.1358 1130.88 73.1358C1124.05 73.1358 1120.04 78.2519 1120.04 83.5457C1120.04 85.6 1120.83 87.8123 1121.81 89.0173C1122.01 89.2543 1122.03 89.4716 1121.97 89.7086C1121.8 90.4593 1121.38 92.0988 1121.3 92.4346C1121.2 92.8691 1120.95 92.9679 1120.49 92.7506C1117.49 91.3481 1115.61 86.9827 1115.61 83.4469C1115.61 75.8815 1121.1 68.9284 1131.47 68.9284C1139.79 68.9284 1146.27 74.8543 1146.27 82.7951C1146.27 91.0716 1141.05 97.7284 1133.82 97.7284C1131.4 97.7284 1129.1 96.4642 1128.33 94.963C1128.33 94.963 1127.13 99.5457 1126.83 100.672C1126.3 102.765 1124.84 105.373 1123.85 106.973C1126.1 107.664 1128.47 108.04 1130.96 108.04C1144.21 108.04 1154.96 97.2938 1154.96 84.0395C1155 70.7457 1144.25 60 1131 60Z" fill="#E60019"/>
</g>
<path d="M1262.07 83.6554C1262.07 91.1968 1256.01 97.3103 1248.54 97.3103C1241.06 97.3103 1235 91.1955 1235 83.6554C1235 76.1153 1241.06 70 1248.54 70C1256.01 70 1262.07 76.114 1262.07 83.6554Z" fill="#111928"/>
<path d="M1276.93 83.6554C1276.93 90.754 1273.9 96.5109 1270.16 96.5109C1266.42 96.5109 1263.39 90.754 1263.39 83.6554C1263.39 76.5568 1266.42 70.7999 1270.16 70.7999C1273.89 70.7999 1276.93 76.5549 1276.93 83.6554" fill="#111928"/>
<path d="M1283 83.6554C1283 90.014 1281.93 95.1719 1280.62 95.1719C1279.3 95.1719 1278.24 90.0154 1278.24 83.6554C1278.24 77.2954 1279.3 72.1389 1280.62 72.1389C1281.93 72.1389 1283 77.2949 1283 83.6554Z" fill="#111928"/>
<g clip-path="url(#clip7_2_13477)">
<path fill-rule="evenodd" clip-rule="evenodd" d="M1387 61C1381.3 61.003 1375.79 63.0209 1371.45 66.693C1367.12 70.3652 1364.23 75.452 1363.32 81.044C1362.41 86.636 1363.52 92.3684 1366.47 97.2164C1369.42 102.064 1374.01 105.712 1379.41 107.506C1380.6 107.727 1381.05 106.988 1381.05 106.36C1381.05 105.732 1381.03 103.91 1381.02 101.918C1374.34 103.361 1372.93 99.101 1372.93 99.101C1371.84 96.3349 1370.27 95.6078 1370.27 95.6078C1368.09 94.1299 1370.43 94.1576 1370.43 94.1576C1372.84 94.3275 1374.11 96.6194 1374.11 96.6194C1376.25 100.267 1379.73 99.2116 1381.09 98.5952C1381.31 97.0501 1381.93 95.999 1382.62 95.4023C1377.29 94.8017 1371.68 92.7548 1371.68 83.6108C1371.65 81.2394 1372.54 78.9461 1374.16 77.2054C1373.91 76.6047 1373.09 74.1785 1374.39 70.8829C1374.39 70.8829 1376.41 70.2427 1380.99 73.3289C1384.93 72.2592 1389.08 72.2592 1393.01 73.3289C1397.59 70.2427 1399.6 70.8829 1399.6 70.8829C1400.91 74.1706 1400.09 76.5968 1399.84 77.2054C1401.47 78.9464 1402.35 81.2437 1402.32 83.6187C1402.32 92.7824 1396.7 94.8017 1391.36 95.3905C1392.22 96.1334 1392.99 97.5836 1392.99 99.8122C1392.99 103.005 1392.96 105.574 1392.96 106.36C1392.96 106.996 1393.39 107.739 1394.61 107.506C1400.01 105.711 1404.6 102.063 1407.55 97.2147C1410.49 92.3659 1411.61 86.6326 1410.7 81.0401C1409.78 75.4476 1406.9 70.3607 1402.56 66.6892C1398.22 63.0177 1392.71 61.0011 1387.01 61H1387Z" fill="#191717"/>
<path d="M1372.09 95.264C1372.04 95.3826 1371.85 95.4181 1371.69 95.3351C1371.54 95.2522 1371.42 95.098 1371.48 94.9755C1371.53 94.853 1371.72 94.8214 1371.87 94.9044C1372.03 94.9874 1372.15 95.1455 1372.09 95.264Z" fill="#191717"/>
<path d="M1373.06 96.3428C1372.98 96.384 1372.89 96.3955 1372.8 96.3753C1372.71 96.3551 1372.63 96.3045 1372.57 96.2321C1372.41 96.0662 1372.38 95.837 1372.5 95.7342C1372.62 95.6315 1372.84 95.6789 1372.99 95.8449C1373.15 96.0108 1373.18 96.24 1373.06 96.3428Z" fill="#191717"/>
<path d="M1374.01 97.714C1373.86 97.8167 1373.61 97.714 1373.47 97.5085C1373.43 97.4716 1373.4 97.4274 1373.38 97.3785C1373.36 97.3297 1373.35 97.2771 1373.35 97.224C1373.35 97.1709 1373.36 97.1183 1373.38 97.0694C1373.4 97.0205 1373.43 96.9763 1373.47 96.9395C1373.62 96.8407 1373.87 96.9395 1374.01 97.141C1374.15 97.3425 1374.15 97.6112 1374.01 97.714Z" fill="#191717"/>
<path d="M1375.29 99.0417C1375.16 99.1879 1374.89 99.1484 1374.68 98.9508C1374.46 98.7532 1374.41 98.4845 1374.54 98.3423C1374.67 98.2 1374.93 98.2395 1375.16 98.4331C1375.39 98.6268 1375.43 98.8994 1375.29 99.0417Z" fill="#191717"/>
<path d="M1377.09 99.8162C1377.03 100.002 1376.76 100.085 1376.49 100.006C1376.22 99.9268 1376.04 99.7055 1376.09 99.5159C1376.15 99.3262 1376.42 99.2393 1376.69 99.3262C1376.97 99.4131 1377.14 99.6226 1377.09 99.8162Z" fill="#191717"/>
<path d="M1379.06 99.9505C1379.06 100.144 1378.83 100.31 1378.55 100.314C1378.26 100.318 1378.03 100.16 1378.03 99.9663C1378.03 99.7727 1378.25 99.6067 1378.54 99.6028C1378.82 99.5988 1379.06 99.753 1379.06 99.9505Z" fill="#191717"/>
<path d="M1380.88 99.6463C1380.92 99.8399 1380.72 100.041 1380.43 100.089C1380.15 100.136 1379.9 100.022 1379.86 99.832C1379.83 99.6423 1380.03 99.4368 1380.31 99.3855C1380.59 99.3341 1380.85 99.4526 1380.88 99.6463Z" fill="#191717"/>
</g>
<g clip-path="url(#clip8_2_13477)">
<path d="M99.0001 284C103.416 284 107 280.416 107 276V268H99.0001C94.5841 268 91 271.584 91 276C91 280.416 94.5841 284 99.0001 284Z" fill="#0ACF83"/>
<path d="M91 260C91 255.584 94.5841 252 99.0001 252H107V268H99.0001C94.5841 268 91 264.416 91 260Z" fill="#A259FF"/>
<path d="M91 244C91 239.584 94.5841 236 99.0001 236H107V252H99.0001C94.5841 252 91 248.416 91 244Z" fill="#F24E1E"/>
<path d="M107 236H115C119.416 236 123 239.584 123 244C123 248.416 119.416 252 115 252H107V236Z" fill="#FF7262"/>
<path d="M123 260C123 264.416 119.416 268 115 268C110.584 268 107 264.416 107 260C107 255.584 110.584 252 115 252C119.416 252 123 255.584 123 260Z" fill="#1ABCFE"/>
</g>
<path d="M235 283.25C247.841 283.25 258.25 272.841 258.25 260C258.25 247.159 247.841 236.75 235 236.75C222.159 236.75 211.75 247.159 211.75 260C211.75 272.841 222.159 283.25 235 283.25Z" fill="#EA4C89"/>
<path fill-rule="evenodd" clip-rule="evenodd" d="M235 236C221.751 236 211 246.751 211 260C211 273.25 221.751 284 235 284C248.223 284 259 273.25 259 260C259 246.751 248.223 236 235 236ZM250.852 247.063C253.716 250.551 255.434 255.002 255.486 259.818C254.809 259.688 248.041 258.308 241.221 259.167C241.065 258.829 240.935 258.464 240.779 258.1C240.362 257.111 239.894 256.095 239.425 255.132C246.974 252.061 250.41 247.636 250.852 247.063ZM235 239.54C240.206 239.54 244.97 241.492 248.588 244.694C248.223 245.215 245.126 249.354 237.837 252.087C234.479 245.918 230.757 240.868 230.184 240.087C231.72 239.722 233.334 239.54 235 239.54ZM226.28 241.466C226.826 242.195 230.471 247.271 233.881 253.31C224.302 255.861 215.842 255.809 214.931 255.809C216.258 249.458 220.553 244.174 226.28 241.466ZM214.488 260.026C214.488 259.818 214.488 259.61 214.488 259.401C215.373 259.427 225.317 259.557 235.547 256.486C236.145 257.631 236.692 258.803 237.213 259.974C236.952 260.052 236.666 260.13 236.406 260.208C225.837 263.618 220.215 272.937 219.746 273.718C216.492 270.1 214.488 265.284 214.488 260.026ZM235 280.512C230.262 280.512 225.889 278.898 222.427 276.191C222.792 275.436 226.957 267.419 238.514 263.384C238.566 263.358 238.592 263.358 238.644 263.332C241.534 270.803 242.705 277.076 243.017 278.872C240.544 279.939 237.837 280.512 235 280.512ZM246.427 276.998C246.219 275.748 245.126 269.761 242.445 262.395C248.874 261.38 254.497 263.046 255.2 263.28C254.315 268.98 251.035 273.9 246.427 276.998Z" fill="#C32361"/>
<g clip-path="url(#clip9_2_13477)">
<path d="M363 284C376.255 284 387 273.255 387 260C387 246.745 376.255 236 363 236C349.745 236 339 246.745 339 260C339 273.255 349.745 284 363 284Z" fill="#FF4500"/>
<path d="M379 260C379 258.063 377.428 256.491 375.491 256.491C374.537 256.491 373.695 256.856 373.077 257.474C370.691 255.761 367.379 254.639 363.73 254.498L365.33 247.004L370.523 248.098C370.579 249.418 371.674 250.484 373.021 250.484C374.396 250.484 375.519 249.361 375.519 247.986C375.519 246.611 374.396 245.488 373.021 245.488C372.039 245.488 371.196 246.049 370.803 246.891L364.993 245.656C364.825 245.628 364.656 245.656 364.516 245.74C364.375 245.825 364.291 245.965 364.235 246.133L362.467 254.498C358.733 254.611 355.393 255.705 352.979 257.474C352.361 256.884 351.491 256.491 350.565 256.491C348.628 256.491 347.056 258.063 347.056 260C347.056 261.432 347.898 262.639 349.133 263.2C349.077 263.537 349.049 263.902 349.049 264.267C349.049 269.656 355.309 274.007 363.056 274.007C370.803 274.007 377.063 269.656 377.063 264.267C377.063 263.902 377.035 263.565 376.979 263.228C378.13 262.667 379 261.432 379 260ZM355 262.498C355 261.123 356.123 260 357.498 260C358.874 260 359.996 261.123 359.996 262.498C359.996 263.874 358.874 264.996 357.498 264.996C356.123 264.996 355 263.874 355 262.498ZM368.951 269.095C367.239 270.807 363.982 270.919 363.028 270.919C362.074 270.919 358.789 270.779 357.105 269.095C356.853 268.842 356.853 268.421 357.105 268.168C357.358 267.916 357.779 267.916 358.032 268.168C359.098 269.235 361.4 269.628 363.056 269.628C364.712 269.628 366.986 269.235 368.081 268.168C368.333 267.916 368.754 267.916 369.007 268.168C369.203 268.449 369.203 268.842 368.951 269.095ZM368.502 264.996C367.126 264.996 366.003 263.874 366.003 262.498C366.003 261.123 367.126 260 368.502 260C369.877 260 371 261.123 371 262.498C371 263.874 369.877 264.996 368.502 264.996Z" fill="white"/>
</g>
<path d="M507.634 244.311C504.575 242.907 501.294 241.873 497.864 241.281C497.801 241.269 497.739 241.298 497.707 241.355C497.285 242.106 496.817 243.085 496.49 243.854C492.801 243.302 489.13 243.302 485.517 243.854C485.189 243.067 484.705 242.106 484.281 241.355C484.249 241.3 484.187 241.271 484.124 241.281C480.696 241.871 477.415 242.906 474.354 244.311C474.327 244.323 474.305 244.342 474.29 244.366C468.067 253.663 466.362 262.731 467.198 271.687C467.202 271.731 467.227 271.773 467.261 271.8C471.366 274.815 475.343 276.645 479.247 277.858C479.309 277.877 479.375 277.854 479.415 277.803C480.338 276.542 481.161 275.213 481.867 273.815C481.909 273.733 481.869 273.636 481.784 273.603C480.478 273.108 479.235 272.504 478.039 271.819C477.945 271.763 477.937 271.628 478.024 271.563C478.276 271.375 478.528 271.179 478.768 270.98C478.811 270.944 478.872 270.937 478.923 270.96C486.779 274.546 495.283 274.546 503.046 270.96C503.097 270.935 503.158 270.942 503.203 270.979C503.443 271.177 503.695 271.375 503.948 271.563C504.035 271.628 504.03 271.763 503.935 271.819C502.739 272.518 501.496 273.108 500.189 273.601C500.104 273.634 500.066 273.733 500.108 273.815C500.829 275.211 501.652 276.54 502.558 277.801C502.596 277.854 502.664 277.877 502.726 277.858C506.648 276.645 510.625 274.815 514.731 271.8C514.767 271.773 514.79 271.733 514.793 271.689C515.794 261.335 513.117 252.341 507.696 244.368C507.683 244.342 507.661 244.323 507.634 244.311ZM483.04 266.234C480.675 266.234 478.726 264.063 478.726 261.396C478.726 258.73 480.637 256.558 483.04 256.558C485.462 256.558 487.392 258.749 487.354 261.396C487.354 264.063 485.443 266.234 483.04 266.234ZM498.989 266.234C496.625 266.234 494.676 264.063 494.676 261.396C494.676 258.73 496.587 256.558 498.989 256.558C501.411 256.558 503.341 258.749 503.303 261.396C503.303 264.063 501.411 266.234 498.989 266.234Z" fill="#5865F2"/>
<path d="M629.353 253.327C632.44 255.541 636.221 256.844 640.305 256.844V248.957C639.532 248.957 638.761 248.877 638.005 248.716V254.924C633.921 254.924 630.141 253.621 627.053 251.407V267.502C627.053 275.553 620.549 282.08 612.527 282.08C609.533 282.08 606.751 281.172 604.44 279.614C607.078 282.321 610.757 284 614.826 284C622.849 284 629.353 277.473 629.353 269.422V253.327H629.353ZM632.19 245.37C630.613 243.64 629.577 241.405 629.353 238.934V237.92H627.173C627.722 241.061 629.593 243.744 632.19 245.37ZM609.514 273.436C608.633 272.276 608.157 270.857 608.159 269.399C608.159 265.716 611.134 262.73 614.804 262.73C615.488 262.73 616.168 262.835 616.819 263.043V254.98C616.058 254.875 615.289 254.83 614.52 254.847V261.123C613.868 260.915 613.188 260.81 612.504 260.81C608.834 260.81 605.859 263.796 605.859 267.479C605.859 270.083 607.346 272.337 609.514 273.436Z" fill="#FF004F"/>
<path d="M627.053 251.407C630.14 253.621 633.921 254.924 638.005 254.924V248.716C635.726 248.228 633.708 247.033 632.19 245.37C629.593 243.744 627.722 241.06 627.173 237.92H621.448V269.421C621.435 273.094 618.465 276.067 614.803 276.067C612.645 276.067 610.728 275.035 609.514 273.436C607.345 272.337 605.858 270.083 605.858 267.479C605.858 263.796 608.833 260.81 612.503 260.81C613.206 260.81 613.884 260.92 614.52 261.123V254.847C606.638 255.01 600.3 261.473 600.3 269.421C600.3 273.389 601.878 276.986 604.44 279.614C606.751 281.172 609.533 282.08 612.527 282.08C620.549 282.08 627.053 275.553 627.053 267.502V251.407H627.053Z" fill="#111928"/>
<path d="M638.005 248.716V247.037C635.95 247.04 633.934 246.462 632.19 245.37C633.734 247.066 635.767 248.236 638.005 248.716ZM627.173 237.92C627.121 237.62 627.081 237.318 627.053 237.014V236H619.148V267.502C619.135 271.174 616.166 274.147 612.503 274.147C611.428 274.147 610.413 273.891 609.514 273.436C610.728 275.035 612.645 276.067 614.803 276.067C618.465 276.067 621.435 273.094 621.448 269.421V237.92H627.173ZM614.52 254.847V253.06C613.86 252.969 613.194 252.924 612.527 252.924C604.504 252.924 598 259.451 598 267.502C598 272.549 600.556 276.997 604.44 279.614C601.878 276.986 600.3 273.389 600.3 269.421C600.3 261.473 606.638 255.01 614.52 254.847Z" fill="#00F2EA"/>
<g clip-path="url(#clip10_2_13477)">
<path d="M752.2 284C745 284 739.6 280.3 739.6 271.4V257.2H733V249.5C740.2 247.6 743.2 241.4 743.6 236H751.1V248.2H759.8V257.2H751.1V269.6C751.1 273.3 753 274.6 756 274.6H760.2V284H752.2Z" fill="#001935"/>
</g>
<g clip-path="url(#clip11_2_13477)">
<path d="M875 284C888.255 284 899 273.255 899 260C899 246.745 888.255 236 875 236C861.745 236 851 246.745 851 260C851 273.255 861.745 284 875 284Z" fill="url(#paint0_linear_2_13477)"/>
<path fill-rule="evenodd" clip-rule="evenodd" d="M861.864 259.747C868.86 256.698 873.526 254.689 875.86 253.718C882.525 250.946 883.91 250.464 884.813 250.448C885.011 250.445 885.455 250.494 885.743 250.727C885.986 250.924 886.052 251.19 886.084 251.377C886.116 251.564 886.156 251.989 886.124 252.322C885.763 256.117 884.2 265.326 883.405 269.577C883.069 271.375 882.406 271.978 881.765 272.037C880.371 272.166 879.313 271.116 877.963 270.231C875.851 268.847 874.658 267.985 872.607 266.634C870.238 265.072 871.774 264.214 873.124 262.811C873.478 262.444 879.618 256.859 879.737 256.352C879.752 256.289 879.766 256.052 879.626 255.928C879.485 255.803 879.278 255.846 879.129 255.88C878.917 255.928 875.542 258.158 869.005 262.571C868.047 263.228 867.18 263.549 866.403 263.532C865.546 263.514 863.897 263.048 862.672 262.649C861.169 262.161 859.974 261.902 860.078 261.073C860.132 260.64 860.728 260.198 861.864 259.747Z" fill="white"/>
</g>
<path d="M982.483 271.75C980.567 271.75 979 273.317 979 275.233C979 277.15 980.567 278.717 982.483 278.717C984.4 278.717 985.967 277.15 985.967 275.233C985.967 273.317 984.417 271.75 982.483 271.75Z" fill="#6515DD"/>
<path d="M1025.37 241.333L1003.43 248.333V241.417L979.783 248.967V269.017L1000.18 262.5V269.383L1027 260.833L1019.73 253.733L1025.37 241.333ZM1000.18 259.067L983.05 264.533V251.35L1000.18 245.883V259.067ZM1020.93 259.35L1003.43 264.933V251.767L1019.55 246.617L1015.85 254.417L1020.93 259.35Z" fill="#6515DD"/>
<path d="M1125.24 236.701L1125.78 238.883C1123.65 239.407 1121.62 240.249 1119.75 241.378L1118.6 239.449C1120.66 238.2 1122.9 237.274 1125.24 236.701ZM1136.76 236.701L1136.22 238.883C1138.35 239.407 1140.38 240.249 1142.25 241.378L1143.42 239.449C1141.35 238.201 1139.11 237.275 1136.76 236.701ZM1110.45 247.59C1109.2 249.654 1108.27 251.896 1107.7 254.238L1109.88 254.777C1110.41 252.654 1111.25 250.622 1112.38 248.749L1110.45 247.59ZM1109.25 260C1109.25 258.909 1109.33 257.819 1109.49 256.741L1107.27 256.4C1106.91 258.784 1106.91 261.209 1107.27 263.593L1109.49 263.259C1109.33 262.181 1109.25 261.091 1109.25 260ZM1143.4 280.545L1142.25 278.622C1140.38 279.752 1138.35 280.594 1136.23 281.117L1136.77 283.299C1139.11 282.721 1141.34 281.792 1143.4 280.545ZM1152.75 260C1152.75 261.091 1152.67 262.181 1152.51 263.259L1154.73 263.593C1155.09 261.209 1155.09 258.784 1154.73 256.4L1152.51 256.741C1152.67 257.819 1152.75 258.909 1152.75 260ZM1154.3 265.755L1152.12 265.216C1151.59 267.342 1150.75 269.376 1149.62 271.251L1151.55 272.41C1152.8 270.344 1153.73 268.1 1154.3 265.755ZM1134.26 281.506C1132.1 281.833 1129.9 281.833 1127.74 281.506L1127.41 283.729C1129.79 284.09 1132.21 284.09 1134.59 283.729L1134.26 281.506ZM1148.51 272.901C1147.21 274.658 1145.66 276.21 1143.9 277.504L1145.24 279.317C1147.18 277.891 1148.89 276.183 1150.32 274.251L1148.51 272.901ZM1143.9 242.49C1145.66 243.786 1147.21 245.34 1148.51 247.099L1150.32 245.749C1148.89 243.815 1147.18 242.105 1145.25 240.676L1143.9 242.49ZM1113.49 247.099C1114.79 245.34 1116.34 243.786 1118.1 242.49L1116.75 240.676C1114.82 242.105 1113.11 243.815 1111.68 245.749L1113.49 247.099ZM1151.55 247.59L1149.62 248.749C1150.75 250.619 1151.59 252.649 1152.12 254.77L1154.3 254.231C1153.73 251.891 1152.8 249.652 1151.55 247.59ZM1127.74 238.494C1129.9 238.167 1132.1 238.167 1134.26 238.494L1134.59 236.271C1132.21 235.91 1129.79 235.91 1127.41 236.271L1127.74 238.494ZM1114.64 279.917L1110 280.995L1111.08 276.351L1108.89 275.84L1107.81 280.483C1107.74 280.771 1107.73 281.07 1107.78 281.362C1107.83 281.653 1107.93 281.933 1108.09 282.185C1108.24 282.436 1108.45 282.654 1108.69 282.827C1108.93 282.999 1109.2 283.123 1109.49 283.19C1109.82 283.265 1110.17 283.265 1110.51 283.19L1115.15 282.12L1114.64 279.917ZM1109.36 273.835L1111.55 274.34L1112.3 271.121C1111.21 269.284 1110.39 267.294 1109.88 265.216L1107.7 265.755C1108.19 267.744 1108.93 269.661 1109.91 271.462L1109.36 273.835ZM1119.86 278.704L1116.64 279.454L1117.15 281.649L1119.52 281.097C1121.32 282.076 1123.24 282.819 1125.22 283.306L1125.76 281.124C1123.69 280.608 1121.71 279.788 1119.88 278.69L1119.86 278.704ZM1131 240.499C1120.23 240.505 1111.51 249.24 1111.51 260.007C1111.51 263.674 1112.55 267.266 1114.5 270.371L1112.62 278.376L1120.62 276.501C1129.74 282.236 1141.78 279.501 1147.51 270.392C1153.25 261.282 1150.52 249.24 1141.41 243.499C1138.29 241.538 1134.68 240.498 1131 240.499Z" fill="#3A76F0"/>
<path d="M1387 236C1373.75 236 1363 246.744 1363 260C1363 273.256 1373.75 284 1387 284C1400.25 284 1411 273.256 1411 260C1411 246.744 1400.25 236 1387 236ZM1398.71 270.597C1398.32 271.28 1397.61 271.664 1396.88 271.664C1396.54 271.664 1396.19 271.579 1395.87 271.399C1392.87 269.719 1389.6 268.689 1386.15 268.34C1382.69 267.993 1379.28 268.344 1376 269.392C1374.91 269.741 1373.73 269.136 1373.38 268.04C1373.03 266.942 1373.63 265.768 1374.73 265.416C1378.56 264.194 1382.55 263.779 1386.57 264.188C1390.6 264.597 1394.41 265.797 1397.91 267.758C1398.91 268.319 1399.27 269.591 1398.71 270.597ZM1401.58 263.308C1401.21 264.021 1400.48 264.431 1399.73 264.431C1399.4 264.431 1399.08 264.356 1398.77 264.194C1395.08 262.276 1391.11 261.088 1386.93 260.664C1382.73 260.234 1378.57 260.609 1374.55 261.767C1373.44 262.082 1372.29 261.448 1371.97 260.339C1371.65 259.232 1372.29 258.076 1373.4 257.756C1377.93 256.449 1382.63 256.031 1387.36 256.511C1392.05 256.989 1396.54 258.328 1400.7 260.493C1401.72 261.026 1402.12 262.286 1401.58 263.308ZM1402.62 257.243C1402.31 257.243 1401.99 257.172 1401.69 257.024C1397.32 254.844 1392.62 253.487 1387.71 252.989C1382.8 252.487 1377.91 252.875 1373.18 254.138C1372.07 254.433 1370.93 253.773 1370.63 252.659C1370.33 251.546 1370.99 250.401 1372.11 250.104C1377.33 248.711 1382.72 248.287 1388.14 248.837C1393.55 249.384 1398.73 250.883 1403.55 253.288C1404.59 253.802 1405 255.056 1404.49 256.087C1404.13 256.82 1403.39 257.243 1402.62 257.243Z" fill="#1ED760"/>
<g clip-path="url(#clip12_2_13477)">
<path d="M1517.13 279.572C1516.57 278.201 1516 276.831 1515.37 275.481C1514.82 274.277 1514.12 273.924 1512.8 274.225C1511.13 274.609 1509.49 275.118 1507.82 275.46C1504.59 276.135 1501.35 276.197 1498.16 275.19C1494.16 273.934 1492.03 271.037 1490.73 267.299H1501.57C1502.42 267.299 1503.1 266.614 1503.1 265.763V262.347C1503.1 261.495 1502.42 260.81 1501.57 260.81H1489.69C1489.69 259.855 1489.68 258.941 1489.69 258.028H1501.57C1502.42 258.028 1503.1 257.342 1503.1 256.491V253.075C1503.1 252.224 1502.42 251.538 1501.57 251.538H1491.18C1491.18 251.497 1491.18 251.455 1491.2 251.435C1492.45 248.6 1494.27 246.326 1497.25 245.143C1500.71 243.772 1504.25 243.803 1507.83 244.54C1509.52 244.883 1511.18 245.402 1512.87 245.786C1514.11 246.067 1514.82 245.703 1515.35 244.551C1515.97 243.222 1516.53 241.872 1517.09 240.512C1517.62 239.235 1517.31 238.332 1516.1 237.626C1515.8 237.449 1515.49 237.304 1515.17 237.179C1510.16 235.227 1505 234.5 1499.68 235.352C1495.93 235.954 1492.43 237.241 1489.41 239.588C1485.6 242.537 1483.13 246.43 1481.69 251.009L1481.52 251.538H1476.18C1475.33 251.538 1474.64 252.224 1474.64 253.075V256.491C1474.64 257.342 1475.33 258.028 1476.18 258.028H1480.38C1480.38 258.962 1480.38 259.865 1480.38 260.81H1476.18C1475.33 260.81 1474.64 261.495 1474.64 262.347V265.763C1474.64 266.614 1475.33 267.299 1476.18 267.299H1481.25C1481.63 268.545 1481.95 269.812 1482.44 271.006C1485.01 277.194 1489.3 281.596 1495.77 283.694C1501.12 285.428 1506.51 285.376 1511.9 283.891C1513.3 283.507 1514.69 283.009 1516.02 282.396C1517.31 281.804 1517.64 280.807 1517.13 279.572Z" fill="black"/>
</g>
<g clip-path="url(#clip13_2_13477)">
<path d="M131 436C131 422.745 120.255 412 107 412C93.7452 412 83 422.745 83 436C83 447.979 91.7764 457.908 103.25 459.708V442.938H97.1562V436H103.25V430.713C103.25 424.698 106.833 421.375 112.315 421.375C114.94 421.375 117.688 421.844 117.688 421.844V427.75H114.661C111.68 427.75 110.75 429.6 110.75 431.5V436H117.406L116.342 442.938H110.75V459.708C122.224 457.908 131 447.979 131 436Z" fill="white"/>
</g>
<g clip-path="url(#clip14_2_13477)">
<path d="M226.1 455.5C244.209 455.5 254.117 440.493 254.117 427.484C254.117 427.062 254.107 426.631 254.088 426.209C256.016 424.815 257.679 423.089 259 421.111C257.205 421.909 255.299 422.431 253.348 422.658C255.403 421.426 256.941 419.491 257.678 417.212C255.745 418.357 253.631 419.165 251.427 419.601C249.942 418.023 247.978 416.978 245.839 416.628C243.701 416.278 241.506 416.642 239.595 417.664C237.685 418.686 236.164 420.309 235.268 422.283C234.372 424.256 234.151 426.469 234.639 428.581C230.725 428.384 226.896 427.367 223.4 425.596C219.904 423.825 216.819 421.339 214.346 418.299C213.089 420.467 212.704 423.031 213.27 425.472C213.836 427.913 215.31 430.047 217.393 431.44C215.829 431.39 214.3 430.969 212.931 430.212V430.334C212.93 432.608 213.716 434.813 215.157 436.574C216.597 438.334 218.603 439.541 220.832 439.99C219.384 440.386 217.864 440.444 216.39 440.159C217.019 442.115 218.243 443.826 219.892 445.053C221.54 446.28 223.53 446.961 225.585 447.003C222.097 449.742 217.788 451.228 213.353 451.221C212.567 451.22 211.781 451.172 211 451.077C215.506 453.968 220.747 455.503 226.1 455.5Z" fill="white"/>
</g>
<g clip-path="url(#clip15_2_13477)">
<path d="M363 416.322C369.413 416.322 370.172 416.35 372.694 416.462C375.038 416.566 376.303 416.959 377.147 417.288C378.263 417.719 379.069 418.244 379.903 419.078C380.747 419.922 381.263 420.719 381.694 421.834C382.022 422.678 382.416 423.953 382.519 426.287C382.631 428.819 382.659 429.578 382.659 435.981C382.659 442.394 382.631 443.153 382.519 445.675C382.416 448.019 382.022 449.284 381.694 450.128C381.263 451.244 380.737 452.05 379.903 452.884C379.059 453.728 378.263 454.244 377.147 454.675C376.303 455.003 375.028 455.397 372.694 455.5C370.163 455.612 369.403 455.641 363 455.641C356.588 455.641 355.828 455.612 353.306 455.5C350.963 455.397 349.697 455.003 348.853 454.675C347.738 454.244 346.931 453.719 346.097 452.884C345.253 452.041 344.738 451.244 344.306 450.128C343.978 449.284 343.584 448.009 343.481 445.675C343.369 443.144 343.341 442.384 343.341 435.981C343.341 429.569 343.369 428.809 343.481 426.287C343.584 423.944 343.978 422.678 344.306 421.834C344.738 420.719 345.263 419.912 346.097 419.078C346.941 418.234 347.738 417.719 348.853 417.288C349.697 416.959 350.972 416.566 353.306 416.462C355.828 416.35 356.588 416.322 363 416.322ZM363 412C356.484 412 355.669 412.028 353.109 412.141C350.559 412.253 348.806 412.666 347.288 413.256C345.703 413.875 344.363 414.691 343.031 416.031C341.691 417.363 340.875 418.703 340.256 420.278C339.666 421.806 339.253 423.55 339.141 426.1C339.028 428.669 339 429.484 339 436C339 442.516 339.028 443.331 339.141 445.891C339.253 448.441 339.666 450.194 340.256 451.713C340.875 453.297 341.691 454.638 343.031 455.969C344.363 457.3 345.703 458.125 347.278 458.734C348.806 459.325 350.55 459.737 353.1 459.85C355.659 459.962 356.475 459.991 362.991 459.991C369.506 459.991 370.322 459.962 372.881 459.85C375.431 459.737 377.184 459.325 378.703 458.734C380.278 458.125 381.619 457.3 382.95 455.969C384.281 454.638 385.106 453.297 385.716 451.722C386.306 450.194 386.719 448.45 386.831 445.9C386.944 443.341 386.972 442.525 386.972 436.009C386.972 429.494 386.944 428.678 386.831 426.119C386.719 423.569 386.306 421.816 385.716 420.297C385.125 418.703 384.309 417.363 382.969 416.031C381.638 414.7 380.297 413.875 378.722 413.266C377.194 412.675 375.45 412.263 372.9 412.15C370.331 412.028 369.516 412 363 412Z" fill="white"/>
<path d="M363 423.672C356.194 423.672 350.672 429.194 350.672 436C350.672 442.806 356.194 448.328 363 448.328C369.806 448.328 375.328 442.806 375.328 436C375.328 429.194 369.806 423.672 363 423.672ZM363 443.997C358.584 443.997 355.003 440.416 355.003 436C355.003 431.584 358.584 428.003 363 428.003C367.416 428.003 370.997 431.584 370.997 436C370.997 440.416 367.416 443.997 363 443.997Z" fill="white"/>
<path d="M378.694 423.184C378.694 424.778 377.4 426.062 375.816 426.062C374.222 426.062 372.938 424.769 372.938 423.184C372.938 421.591 374.231 420.306 375.816 420.306C377.4 420.306 378.694 421.6 378.694 423.184Z" fill="white"/>
</g>
<g clip-path="url(#clip16_2_13477)">
<path d="M511.447 412H470.544C468.584 412 467 413.547 467 415.459V456.531C467 458.444 468.584 460 470.544 460H511.447C513.406 460 515 458.444 515 456.541V415.459C515 413.547 513.406 412 511.447 412ZM481.241 452.903H474.116V429.991H481.241V452.903ZM477.678 426.869C475.391 426.869 473.544 425.022 473.544 422.744C473.544 420.466 475.391 418.619 477.678 418.619C479.956 418.619 481.803 420.466 481.803 422.744C481.803 425.012 479.956 426.869 477.678 426.869ZM507.903 452.903H500.787V441.766C500.787 439.112 500.741 435.691 497.084 435.691C493.381 435.691 492.819 438.587 492.819 441.578V452.903H485.713V429.991H492.537V433.122H492.631C493.578 431.322 495.903 429.419 499.363 429.419C506.572 429.419 507.903 434.163 507.903 440.331V452.903Z" fill="white"/>
</g>
<g clip-path="url(#clip17_2_13477)">
<path fill-rule="evenodd" clip-rule="evenodd" d="M628.687 425.096C626.209 422.732 622.902 421.445 619.48 421.498C613.219 421.498 607.901 425.722 606.005 431.41C605 434.39 605 437.618 606.005 440.599H606.014C607.919 446.278 613.228 450.502 619.489 450.502C622.721 450.502 625.496 449.676 627.646 448.215V448.209C630.177 446.534 631.906 443.897 632.443 440.916H619.48V431.674H642.118C642.4 433.279 642.532 434.92 642.532 436.551C642.532 443.851 639.923 450.022 635.384 454.202L635.389 454.206C631.412 457.875 625.953 460 619.48 460C610.406 460 602.107 454.885 598.033 446.781C594.629 439.999 594.629 432.01 598.033 425.228C602.107 417.115 610.406 412 619.48 412C625.441 411.929 631.2 414.169 635.539 418.244L628.687 425.096Z" fill="white"/>
</g>
<path d="M770.522 426.4C770.522 426.4 770.053 423.091 768.609 421.638C766.781 419.725 764.738 419.716 763.8 419.603C757.088 419.116 747.009 419.116 747.009 419.116H746.991C746.991 419.116 736.913 419.116 730.2 419.603C729.263 419.716 727.219 419.725 725.391 421.638C723.947 423.091 723.487 426.4 723.487 426.4C723.487 426.4 723 430.291 723 434.172V437.809C723 441.691 723.478 445.581 723.478 445.581C723.478 445.581 723.947 448.891 725.381 450.344C727.209 452.256 729.609 452.191 730.678 452.397C734.522 452.763 747 452.875 747 452.875C747 452.875 757.088 452.856 763.8 452.378C764.738 452.266 766.781 452.256 768.609 450.344C770.053 448.891 770.522 445.581 770.522 445.581C770.522 445.581 771 441.7 771 437.809V434.172C771 430.291 770.522 426.4 770.522 426.4ZM742.041 442.225V428.734L755.006 435.503L742.041 442.225Z" fill="white"/>
<g clip-path="url(#clip18_2_13477)">
<path d="M894.584 449.407C893.858 451.084 892.999 452.628 892.003 454.047C890.646 455.982 889.535 457.321 888.679 458.065C887.352 459.285 885.929 459.911 884.406 459.946C883.313 459.946 881.995 459.635 880.46 459.004C878.92 458.376 877.505 458.065 876.211 458.065C874.854 458.065 873.399 458.376 871.842 459.004C870.283 459.635 869.027 459.964 868.067 459.996C866.606 460.059 865.151 459.416 863.698 458.065C862.77 457.256 861.61 455.869 860.221 453.905C858.73 451.807 857.504 449.375 856.544 446.601C855.516 443.606 855 440.705 855 437.897C855 434.68 855.695 431.906 857.087 429.581C858.182 427.713 859.637 426.24 861.459 425.159C863.281 424.077 865.249 423.526 867.369 423.491C868.529 423.491 870.05 423.85 871.941 424.555C873.826 425.262 875.036 425.621 875.567 425.621C875.963 425.621 877.308 425.202 879.587 424.365C881.743 423.59 883.562 423.268 885.052 423.395C889.091 423.721 892.125 425.313 894.142 428.181C890.531 430.369 888.744 433.434 888.78 437.366C888.812 440.429 889.923 442.978 892.107 445.001C893.097 445.941 894.202 446.666 895.431 447.182C895.165 447.955 894.883 448.696 894.584 449.407ZM885.322 412.961C885.322 415.361 884.445 417.603 882.697 419.677C880.587 422.144 878.036 423.569 875.269 423.344C875.233 423.056 875.213 422.753 875.213 422.434C875.213 420.13 876.216 417.663 877.998 415.647C878.887 414.626 880.018 413.777 881.39 413.1C882.759 412.433 884.054 412.064 885.272 412.001C885.307 412.321 885.322 412.642 885.322 412.961V412.961Z" fill="white"/>
</g>
<path d="M1026.83 446.915C1026.5 446.008 1025.86 445.518 1025.13 445.126C1025 445.052 1024.88 444.979 1024.77 444.93C1024.55 444.819 1024.33 444.709 1024.11 444.599C1021.85 443.397 1020.09 441.902 1018.87 440.113C1018.53 439.61 1018.22 439.071 1017.98 438.519C1017.87 438.225 1017.88 438.053 1017.95 437.894C1018.03 437.771 1018.12 437.673 1018.25 437.588C1018.64 437.33 1019.03 437.073 1019.3 436.901C1019.78 436.582 1020.17 436.337 1020.42 436.166C1021.34 435.516 1021.98 434.83 1022.39 434.057C1022.97 432.979 1023.04 431.716 1022.6 430.576C1021.98 428.958 1020.46 427.966 1018.61 427.966C1018.22 427.966 1017.84 428.002 1017.45 428.088C1017.35 428.113 1017.24 428.137 1017.14 428.162C1017.16 427.059 1017.13 425.894 1017.03 424.742C1016.69 420.709 1015.27 418.601 1013.8 416.922C1012.85 415.868 1011.75 414.973 1010.51 414.274C1008.28 413 1005.74 412.35 1002.99 412.35C1000.23 412.35 997.703 413 995.473 414.274C994.235 414.973 993.131 415.868 992.188 416.922C990.717 418.601 989.307 420.722 988.952 424.742C988.854 425.894 988.829 427.059 988.841 428.162C988.743 428.137 988.645 428.113 988.535 428.088C988.155 428.002 987.763 427.966 987.383 427.966C985.532 427.966 984.012 428.971 983.399 430.576C982.958 431.716 983.032 432.979 983.608 434.057C984.012 434.83 984.662 435.516 985.581 436.166C985.826 436.337 986.206 436.582 986.696 436.901C986.954 437.073 987.334 437.318 987.714 437.563C987.849 437.649 987.959 437.759 988.045 437.894C988.118 438.053 988.131 438.225 988.008 438.544C987.763 439.083 987.469 439.61 987.125 440.1C985.937 441.841 984.221 443.324 982.039 444.513C980.887 445.126 979.685 445.53 979.171 446.915C978.791 447.957 979.036 449.134 980.004 450.139C980.36 450.507 980.776 450.825 981.23 451.07C982.174 451.585 983.179 451.99 984.233 452.272C984.453 452.333 984.65 452.419 984.833 452.541C985.189 452.848 985.14 453.313 985.606 454C985.838 454.355 986.145 454.662 986.488 454.907C987.481 455.593 988.596 455.63 989.773 455.679C990.839 455.716 992.041 455.765 993.426 456.218C994.002 456.402 994.59 456.77 995.276 457.199C996.931 458.216 999.187 459.601 1002.97 459.601C1006.76 459.601 1009.03 458.204 1010.7 457.187C1011.38 456.77 1011.97 456.402 1012.52 456.218C1013.9 455.765 1015.11 455.716 1016.17 455.679C1017.35 455.63 1018.47 455.593 1019.46 454.907C1019.88 454.613 1020.22 454.245 1020.46 453.804C1020.81 453.228 1020.8 452.823 1021.11 452.541C1021.29 452.419 1021.48 452.333 1021.68 452.284C1022.73 452.002 1023.76 451.597 1024.72 451.07C1025.2 450.813 1025.64 450.47 1026.01 450.065L1026.02 450.053C1026.97 449.072 1027.21 447.92 1026.83 446.915ZM1023.47 448.717C1021.42 449.845 1020.05 449.722 1018.99 450.409C1018.09 450.985 1018.63 452.235 1017.98 452.688C1017.17 453.24 1014.79 452.652 1011.73 453.669C1009.19 454.502 1007.58 456.917 1003.02 456.917C998.463 456.917 996.894 454.515 994.32 453.669C991.256 452.652 988.878 453.252 988.069 452.688C987.42 452.235 987.947 450.985 987.052 450.409C985.986 449.722 984.625 449.845 982.578 448.717C981.267 447.994 982.014 447.553 982.443 447.344C989.871 443.753 991.06 438.2 991.109 437.784C991.17 437.281 991.244 436.889 990.692 436.386C990.165 435.896 987.812 434.437 987.15 433.984C986.071 433.224 985.593 432.476 985.949 431.545C986.194 430.907 986.795 430.662 987.42 430.662C987.616 430.662 987.812 430.687 988.008 430.724C989.197 430.981 990.349 431.569 991.011 431.741C991.097 431.765 991.17 431.778 991.256 431.778C991.612 431.778 991.734 431.594 991.71 431.189C991.636 429.89 991.452 427.365 991.661 424.999C991.943 421.751 992.984 420.133 994.235 418.711C994.835 418.025 997.642 415.059 1003.02 415.059C1008.4 415.059 1011.21 418.013 1011.81 418.699C1013.06 420.121 1014.1 421.739 1014.39 424.987C1014.59 427.353 1014.41 429.878 1014.32 431.177C1014.3 431.606 1014.42 431.765 1014.78 431.765C1014.86 431.765 1014.94 431.753 1015.02 431.729C1015.68 431.569 1016.84 430.969 1018.03 430.711C1018.22 430.662 1018.42 430.65 1018.61 430.65C1019.24 430.65 1019.84 430.895 1020.09 431.532C1020.44 432.464 1019.96 433.212 1018.88 433.972C1018.23 434.425 1015.88 435.884 1015.34 436.374C1014.79 436.877 1014.86 437.269 1014.92 437.771C1014.97 438.188 1016.16 443.741 1023.59 447.332C1024.03 447.54 1024.77 447.994 1023.47 448.717Z" fill="white"/>
<g clip-path="url(#clip19_2_13477)">
<path d="M1131 412C1117.74 412 1107 422.744 1107 436C1107 446.172 1113.33 454.853 1122.25 458.35C1122.05 456.447 1121.85 453.541 1122.34 451.469C1122.78 449.594 1125.15 439.544 1125.15 439.544C1125.15 439.544 1124.43 438.109 1124.43 435.981C1124.43 432.644 1126.36 430.15 1128.77 430.15C1130.81 430.15 1131.81 431.688 1131.81 433.534C1131.81 435.597 1130.49 438.672 1129.82 441.522C1129.26 443.912 1131.02 445.863 1133.37 445.863C1137.64 445.863 1140.92 441.362 1140.92 434.875C1140.92 429.128 1136.79 425.106 1130.9 425.106C1124.07 425.106 1120.06 430.225 1120.06 435.522C1120.06 437.584 1120.86 439.797 1121.85 440.997C1122.05 441.231 1122.07 441.447 1122.02 441.681C1121.84 442.441 1121.43 444.072 1121.35 444.4C1121.25 444.841 1121.01 444.934 1120.55 444.719C1117.55 443.322 1115.67 438.944 1115.67 435.419C1115.67 427.844 1121.18 420.897 1131.53 420.897C1139.85 420.897 1146.32 426.831 1146.32 434.763C1146.32 443.031 1141.11 449.688 1133.87 449.688C1131.44 449.688 1129.15 448.422 1128.37 446.931C1128.37 446.931 1127.17 451.516 1126.88 452.641C1126.33 454.722 1124.87 457.338 1123.89 458.931C1126.14 459.625 1128.52 460 1131 460C1144.26 460 1155 449.256 1155 436C1155 422.744 1144.26 412 1131 412Z" fill="white"/>
</g>
<path d="M1262.07 435.655C1262.07 443.197 1256.01 449.31 1248.54 449.31C1241.06 449.31 1235 443.195 1235 435.655C1235 428.115 1241.06 422 1248.54 422C1256.01 422 1262.07 428.114 1262.07 435.655Z" fill="white"/>
<path d="M1276.93 435.655C1276.93 442.754 1273.9 448.511 1270.16 448.511C1266.42 448.511 1263.39 442.754 1263.39 435.655C1263.39 428.557 1266.42 422.8 1270.16 422.8C1273.89 422.8 1276.93 428.555 1276.93 435.655" fill="white"/>
<path d="M1283 435.655C1283 442.014 1281.93 447.172 1280.62 447.172C1279.3 447.172 1278.24 442.015 1278.24 435.655C1278.24 429.295 1279.3 424.139 1280.62 424.139C1281.93 424.139 1283 429.295 1283 435.655Z" fill="white"/>
<g clip-path="url(#clip20_2_13477)">
<path fill-rule="evenodd" clip-rule="evenodd" d="M1387 413C1381.3 413.003 1375.79 415.021 1371.45 418.693C1367.12 422.365 1364.23 427.452 1363.32 433.044C1362.41 438.636 1363.52 444.368 1366.47 449.216C1369.42 454.064 1374.01 457.712 1379.41 459.506C1380.6 459.727 1381.05 458.988 1381.05 458.36C1381.05 457.732 1381.03 455.91 1381.02 453.918C1374.34 455.361 1372.93 451.101 1372.93 451.101C1371.84 448.335 1370.27 447.608 1370.27 447.608C1368.09 446.13 1370.43 446.158 1370.43 446.158C1372.84 446.327 1374.11 448.619 1374.11 448.619C1376.25 452.267 1379.73 451.212 1381.09 450.595C1381.31 449.05 1381.93 447.999 1382.62 447.402C1377.29 446.802 1371.68 444.755 1371.68 435.611C1371.65 433.239 1372.54 430.946 1374.16 429.205C1373.91 428.605 1373.09 426.178 1374.39 422.883C1374.39 422.883 1376.41 422.243 1380.99 425.329C1384.93 424.259 1389.08 424.259 1393.01 425.329C1397.59 422.243 1399.6 422.883 1399.6 422.883C1400.91 426.171 1400.09 428.597 1399.84 429.205C1401.47 430.946 1402.35 433.244 1402.32 435.619C1402.32 444.782 1396.7 446.802 1391.36 447.39C1392.22 448.133 1392.99 449.584 1392.99 451.812C1392.99 455.005 1392.96 457.574 1392.96 458.36C1392.96 458.996 1393.39 459.739 1394.61 459.506C1400.01 457.711 1404.6 454.063 1407.55 449.215C1410.49 444.366 1411.61 438.633 1410.7 433.04C1409.78 427.448 1406.9 422.361 1402.56 418.689C1398.22 415.018 1392.71 413.001 1387.01 413H1387Z" fill="white"/>
<path d="M1372.09 447.264C1372.04 447.383 1371.85 447.418 1371.69 447.335C1371.54 447.252 1371.42 447.098 1371.48 446.976C1371.53 446.853 1371.72 446.821 1371.87 446.904C1372.03 446.987 1372.15 447.145 1372.09 447.264Z" fill="white"/>
<path d="M1373.06 448.343C1372.98 448.384 1372.89 448.396 1372.8 448.375C1372.71 448.355 1372.63 448.305 1372.57 448.232C1372.41 448.066 1372.38 447.837 1372.5 447.734C1372.62 447.631 1372.84 447.679 1372.99 447.845C1373.15 448.011 1373.18 448.24 1373.06 448.343Z" fill="white"/>
<path d="M1374.01 449.714C1373.86 449.817 1373.61 449.714 1373.47 449.508C1373.43 449.472 1373.4 449.427 1373.38 449.379C1373.36 449.33 1373.35 449.277 1373.35 449.224C1373.35 449.171 1373.36 449.118 1373.38 449.069C1373.4 449.021 1373.43 448.976 1373.47 448.939C1373.62 448.841 1373.87 448.939 1374.01 449.141C1374.15 449.343 1374.15 449.611 1374.01 449.714Z" fill="white"/>
<path d="M1375.29 451.042C1375.16 451.188 1374.89 451.148 1374.68 450.951C1374.46 450.753 1374.41 450.485 1374.54 450.342C1374.67 450.2 1374.93 450.24 1375.16 450.433C1375.39 450.627 1375.43 450.899 1375.29 451.042Z" fill="white"/>
<path d="M1377.09 451.816C1377.03 452.002 1376.76 452.085 1376.49 452.006C1376.22 451.927 1376.04 451.706 1376.09 451.516C1376.15 451.326 1376.42 451.239 1376.69 451.326C1376.97 451.413 1377.14 451.623 1377.09 451.816Z" fill="white"/>
<path d="M1379.06 451.951C1379.06 452.144 1378.83 452.31 1378.55 452.314C1378.26 452.318 1378.03 452.16 1378.03 451.966C1378.03 451.773 1378.25 451.607 1378.54 451.603C1378.82 451.599 1379.06 451.753 1379.06 451.951Z" fill="white"/>
<path d="M1380.88 451.646C1380.92 451.84 1380.72 452.041 1380.43 452.089C1380.15 452.136 1379.9 452.022 1379.86 451.832C1379.83 451.642 1380.03 451.437 1380.31 451.385C1380.59 451.334 1380.85 451.453 1380.88 451.646Z" fill="white"/>
</g>
<path fill-rule="evenodd" clip-rule="evenodd" d="M99.3201 588H114.68C119.449 588 123.32 591.871 123.32 596.64C123.32 599.982 121.419 602.883 118.64 604.32C121.419 605.757 123.32 608.658 123.32 612C123.32 616.77 119.449 620.64 114.68 620.64C111.967 620.64 109.545 619.388 107.96 617.43V627.36C107.96 632.13 104.09 636 99.3201 636C94.5505 636 90.68 632.13 90.68 627.36C90.68 624.018 92.5808 621.117 95.3597 619.68C92.5808 618.243 90.68 615.342 90.68 612C90.68 608.658 92.5807 605.757 95.3597 604.32C92.5808 602.883 90.68 599.982 90.68 596.64C90.68 591.871 94.5505 588 99.3201 588ZM92.6 596.64C92.6 592.931 95.6109 589.92 99.3201 589.92H106.04V603.36H99.3201L99.2993 603.36C95.5996 603.349 92.6 600.342 92.6 596.64ZM106.04 611.909C106.04 611.939 106.04 611.969 106.04 612C106.04 612.03 106.04 612.061 106.04 612.091V618.72H99.3201C95.6109 618.72 92.6 615.709 92.6 612C92.6 608.298 95.5997 605.291 99.2995 605.28L99.3201 605.28H106.04L106.04 611.909ZM107.96 612.08V611.919C108.003 608.256 110.983 605.295 114.652 605.28H114.68C114.687 605.28 114.694 605.28 114.701 605.28C118.4 605.291 121.4 608.298 121.4 612C121.4 615.709 118.389 618.72 114.68 618.72C110.998 618.72 108.003 615.753 107.96 612.08ZM109.251 605.28C108.776 605.663 108.344 606.096 107.96 606.57V605.28H109.251ZM114.701 603.36C114.694 603.36 114.687 603.36 114.68 603.36C114.669 603.36 114.659 603.36 114.648 603.36H107.96V589.92H114.68C118.389 589.92 121.4 592.931 121.4 596.64C121.4 600.342 118.4 603.349 114.701 603.36ZM99.3201 620.64C95.6109 620.64 92.6 623.651 92.6 627.36C92.6 631.069 95.6109 634.08 99.3201 634.08C103.029 634.08 106.04 631.069 106.04 627.36V620.64H99.3201Z" fill="white"/>
<path fill-rule="evenodd" clip-rule="evenodd" d="M235 588C221.751 588 211 598.751 211 612C211 625.25 221.751 636 235 636C248.223 636 259 625.25 259 612C259 598.751 248.223 588 235 588ZM250.852 599.063C253.716 602.551 255.434 607.002 255.486 611.818C254.809 611.688 248.041 610.308 241.221 611.167C241.065 610.829 240.935 610.464 240.779 610.1C240.362 609.111 239.894 608.095 239.425 607.132C246.974 604.061 250.41 599.636 250.852 599.063ZM235 591.54C240.206 591.54 244.97 593.492 248.588 596.694C248.223 597.215 245.126 601.354 237.837 604.087C234.479 597.918 230.757 592.868 230.184 592.087C231.72 591.722 233.334 591.54 235 591.54ZM226.28 593.466C226.826 594.195 230.471 599.271 233.881 605.31C224.302 607.861 215.842 607.809 214.931 607.809C216.258 601.458 220.553 596.174 226.28 593.466ZM214.488 612.026C214.488 611.818 214.488 611.61 214.488 611.401C215.373 611.427 225.317 611.557 235.547 608.486C236.145 609.631 236.692 610.803 237.213 611.974C236.952 612.052 236.666 612.13 236.406 612.208C225.837 615.618 220.215 624.937 219.746 625.718C216.492 622.1 214.488 617.284 214.488 612.026ZM235 632.512C230.262 632.512 225.889 630.898 222.427 628.191C222.792 627.436 226.957 619.419 238.514 615.384C238.566 615.358 238.592 615.358 238.644 615.332C241.534 622.803 242.705 629.076 243.017 630.872C240.544 631.939 237.837 632.512 235 632.512ZM246.427 628.998C246.219 627.748 245.126 621.761 242.445 614.395C248.874 613.38 254.497 615.046 255.2 615.28C254.315 620.98 251.035 625.9 246.427 628.998Z" fill="white"/>
<path fill-rule="evenodd" clip-rule="evenodd" d="M387 612C387 625.255 376.255 636 363 636C349.745 636 339 625.255 339 612C339 598.745 349.745 588 363 588C376.255 588 387 598.745 387 612ZM375.491 608.491C377.428 608.491 379 610.063 379 612C379 613.432 378.13 614.667 376.979 615.228C377.035 615.565 377.063 615.902 377.063 616.267C377.063 621.656 370.804 626.007 363.056 626.007C355.309 626.007 349.049 621.656 349.049 616.267C349.049 615.902 349.077 615.537 349.133 615.2C347.898 614.639 347.056 613.432 347.056 612C347.056 610.063 348.628 608.491 350.565 608.491C351.491 608.491 352.361 608.884 352.979 609.474C355.393 607.705 358.733 606.61 362.467 606.498L364.235 598.133C364.291 597.965 364.375 597.825 364.516 597.74C364.656 597.656 364.825 597.628 364.993 597.656L370.804 598.891C371.197 598.049 372.039 597.488 373.021 597.488C374.397 597.488 375.519 598.61 375.519 599.986C375.519 601.361 374.397 602.484 373.021 602.484C371.674 602.484 370.579 601.417 370.523 600.098L365.33 599.003L363.73 606.498C367.379 606.639 370.691 607.761 373.077 609.474C373.695 608.856 374.537 608.491 375.491 608.491ZM357.498 612C356.123 612 355 613.123 355 614.498C355 615.874 356.123 616.996 357.498 616.996C358.874 616.996 359.997 615.874 359.997 614.498C359.997 613.123 358.874 612 357.498 612ZM363.028 622.919C363.982 622.919 367.239 622.807 368.951 621.095C369.204 620.842 369.204 620.449 369.007 620.168C368.754 619.916 368.333 619.916 368.081 620.168C366.986 621.235 364.712 621.628 363.056 621.628C361.4 621.628 359.098 621.235 358.032 620.168C357.779 619.916 357.358 619.916 357.105 620.168C356.853 620.421 356.853 620.842 357.105 621.095C358.789 622.779 362.074 622.919 363.028 622.919ZM366.004 614.498C366.004 615.874 367.126 616.996 368.502 616.996C369.877 616.996 371 615.874 371 614.498C371 613.123 369.877 612 368.502 612C367.126 612 366.004 613.123 366.004 614.498Z" fill="white"/>
<path d="M507.634 596.311C504.575 594.907 501.294 593.873 497.864 593.281C497.801 593.269 497.739 593.298 497.707 593.355C497.285 594.106 496.817 595.085 496.49 595.854C492.801 595.302 489.13 595.302 485.517 595.854C485.189 595.067 484.705 594.106 484.281 593.355C484.249 593.3 484.187 593.271 484.124 593.281C480.696 593.871 477.415 594.906 474.354 596.311C474.327 596.323 474.305 596.342 474.29 596.366C468.067 605.663 466.362 614.731 467.198 623.687C467.202 623.731 467.227 623.773 467.261 623.8C471.366 626.815 475.343 628.645 479.247 629.858C479.309 629.877 479.375 629.854 479.415 629.803C480.338 628.542 481.161 627.213 481.867 625.815C481.909 625.733 481.869 625.636 481.784 625.603C480.478 625.108 479.235 624.504 478.039 623.819C477.945 623.763 477.937 623.628 478.024 623.563C478.276 623.375 478.528 623.179 478.768 622.98C478.811 622.944 478.872 622.937 478.923 622.96C486.779 626.546 495.283 626.546 503.046 622.96C503.097 622.935 503.158 622.942 503.203 622.979C503.443 623.177 503.695 623.375 503.948 623.563C504.035 623.628 504.03 623.763 503.935 623.819C502.739 624.518 501.496 625.108 500.189 625.601C500.104 625.634 500.066 625.733 500.108 625.815C500.829 627.211 501.652 628.54 502.558 629.801C502.596 629.854 502.664 629.877 502.726 629.858C506.648 628.645 510.625 626.815 514.731 623.8C514.767 623.773 514.79 623.733 514.793 623.689C515.794 613.335 513.117 604.341 507.696 596.368C507.683 596.342 507.661 596.323 507.634 596.311ZM483.04 618.234C480.675 618.234 478.726 616.063 478.726 613.396C478.726 610.73 480.637 608.558 483.04 608.558C485.462 608.558 487.392 610.749 487.354 613.396C487.354 616.063 485.443 618.234 483.04 618.234ZM498.989 618.234C496.625 618.234 494.676 616.063 494.676 613.396C494.676 610.73 496.587 608.558 498.989 608.558C501.411 608.558 503.341 610.749 503.303 613.396C503.303 616.063 501.411 618.234 498.989 618.234Z" fill="white"/>
<path d="M629.145 588H621.056V620.696C621.056 624.591 617.944 627.791 614.073 627.791C610.201 627.791 607.089 624.591 607.089 620.696C607.089 616.87 610.132 613.739 613.865 613.6V605.391C605.637 605.53 599 612.278 599 620.696C599 629.183 605.776 636 614.142 636C622.508 636 629.283 629.113 629.283 620.696V603.93C632.325 606.157 636.059 607.478 640 607.548V599.339C633.916 599.13 629.145 594.122 629.145 588Z" fill="white"/>
<g clip-path="url(#clip21_2_13477)">
<path d="M752.2 636C745 636 739.6 632.3 739.6 623.4V609.2H733V601.5C740.2 599.6 743.2 593.4 743.6 588H751.1V600.2H759.8V609.2H751.1V621.6C751.1 625.3 753 626.6 756 626.6H760.2V636H752.2Z" fill="white"/>
</g>
<g clip-path="url(#clip22_2_13477)">
<path fill-rule="evenodd" clip-rule="evenodd" d="M899 612C899 625.255 888.255 636 875 636C861.745 636 851 625.255 851 612C851 598.745 861.745 588 875 588C888.255 588 899 598.745 899 612ZM875.86 605.718C873.526 606.689 868.86 608.698 861.864 611.747C860.728 612.198 860.133 612.64 860.078 613.073C859.987 613.803 860.901 614.091 862.147 614.482C862.316 614.536 862.492 614.591 862.672 614.649C863.897 615.048 865.546 615.514 866.403 615.532C867.18 615.549 868.047 615.228 869.005 614.571C875.542 610.158 878.917 607.928 879.129 607.88C879.278 607.846 879.485 607.803 879.626 607.928C879.766 608.052 879.752 608.289 879.737 608.352C879.647 608.738 876.056 612.076 874.198 613.804C873.619 614.342 873.208 614.724 873.124 614.811C872.936 615.007 872.744 615.192 872.56 615.369C871.422 616.467 870.568 617.29 872.607 618.634C873.587 619.279 874.371 619.813 875.154 620.346C876.008 620.928 876.861 621.509 877.963 622.231C878.244 622.415 878.512 622.607 878.774 622.793C879.768 623.502 880.661 624.139 881.765 624.037C882.406 623.978 883.069 623.375 883.405 621.577C884.2 617.326 885.763 608.117 886.124 604.322C886.156 603.989 886.116 603.564 886.084 603.377C886.052 603.19 885.986 602.924 885.743 602.727C885.455 602.494 885.011 602.445 884.813 602.448C883.91 602.464 882.525 602.946 875.86 605.718Z" fill="white"/>
</g>
<path d="M982.483 623.75C980.567 623.75 979 625.317 979 627.233C979 629.15 980.567 630.717 982.483 630.717C984.4 630.717 985.967 629.15 985.967 627.233C985.967 625.317 984.417 623.75 982.483 623.75Z" fill="white"/>
<path d="M1025.37 593.333L1003.43 600.333V593.417L979.783 600.967V621.017L1000.18 614.5V621.383L1027 612.833L1019.73 605.733L1025.37 593.333ZM1000.18 611.067L983.05 616.533V603.35L1000.18 597.883V611.067ZM1020.93 611.35L1003.43 616.933V603.767L1019.55 598.617L1015.85 606.417L1020.93 611.35Z" fill="white"/>
<path d="M1125.24 588.701L1125.78 590.883C1123.65 591.407 1121.62 592.249 1119.75 593.378L1118.6 591.449C1120.66 590.2 1122.9 589.274 1125.24 588.701ZM1136.76 588.701L1136.22 590.883C1138.35 591.407 1140.38 592.249 1142.25 593.378L1143.42 591.449C1141.35 590.201 1139.11 589.275 1136.76 588.701ZM1110.45 599.59C1109.2 601.654 1108.27 603.896 1107.7 606.238L1109.88 606.777C1110.41 604.654 1111.25 602.622 1112.38 600.749L1110.45 599.59ZM1109.25 612C1109.25 610.909 1109.33 609.819 1109.49 608.741L1107.27 608.4C1106.91 610.784 1106.91 613.209 1107.27 615.593L1109.49 615.259C1109.33 614.181 1109.25 613.091 1109.25 612ZM1143.4 632.545L1142.25 630.622C1140.38 631.752 1138.35 632.594 1136.23 633.117L1136.77 635.299C1139.11 634.721 1141.34 633.792 1143.4 632.545ZM1152.75 612C1152.75 613.091 1152.67 614.181 1152.51 615.259L1154.73 615.593C1155.09 613.209 1155.09 610.784 1154.73 608.4L1152.51 608.741C1152.67 609.819 1152.75 610.909 1152.75 612ZM1154.3 617.755L1152.12 617.216C1151.59 619.342 1150.75 621.376 1149.62 623.251L1151.55 624.41C1152.8 622.344 1153.73 620.1 1154.3 617.755ZM1134.26 633.506C1132.1 633.833 1129.9 633.833 1127.74 633.506L1127.41 635.729C1129.79 636.09 1132.21 636.09 1134.59 635.729L1134.26 633.506ZM1148.51 624.901C1147.21 626.658 1145.66 628.21 1143.9 629.504L1145.24 631.317C1147.18 629.891 1148.89 628.183 1150.32 626.251L1148.51 624.901ZM1143.9 594.49C1145.66 595.786 1147.21 597.34 1148.51 599.099L1150.32 597.749C1148.89 595.815 1147.18 594.105 1145.25 592.676L1143.9 594.49ZM1113.49 599.099C1114.79 597.34 1116.34 595.786 1118.1 594.49L1116.75 592.676C1114.82 594.105 1113.11 595.815 1111.68 597.749L1113.49 599.099ZM1151.55 599.59L1149.62 600.749C1150.75 602.619 1151.59 604.649 1152.12 606.77L1154.3 606.231C1153.73 603.891 1152.8 601.652 1151.55 599.59ZM1127.74 590.494C1129.9 590.167 1132.1 590.167 1134.26 590.494L1134.59 588.271C1132.21 587.91 1129.79 587.91 1127.41 588.271L1127.74 590.494ZM1114.64 631.917L1110 632.995L1111.08 628.351L1108.89 627.84L1107.81 632.483C1107.74 632.771 1107.73 633.07 1107.78 633.362C1107.83 633.653 1107.93 633.933 1108.09 634.185C1108.24 634.436 1108.45 634.654 1108.69 634.827C1108.93 634.999 1109.2 635.123 1109.49 635.19C1109.82 635.265 1110.17 635.265 1110.51 635.19L1115.15 634.12L1114.64 631.917ZM1109.36 625.835L1111.55 626.34L1112.3 623.121C1111.21 621.284 1110.39 619.294 1109.88 617.216L1107.7 617.755C1108.19 619.744 1108.93 621.661 1109.91 623.462L1109.36 625.835ZM1119.86 630.704L1116.64 631.454L1117.15 633.649L1119.52 633.097C1121.32 634.076 1123.24 634.819 1125.22 635.306L1125.76 633.124C1123.69 632.608 1121.71 631.788 1119.88 630.69L1119.86 630.704ZM1131 592.499C1120.23 592.505 1111.51 601.24 1111.51 612.007C1111.51 615.674 1112.55 619.266 1114.5 622.371L1112.62 630.376L1120.62 628.501C1129.74 634.236 1141.78 631.501 1147.51 622.392C1153.25 613.282 1150.52 601.24 1141.41 595.499C1138.29 593.538 1134.68 592.498 1131 592.499Z" fill="white"/>
<path d="M1387 588C1373.75 588 1363 598.744 1363 612C1363 625.256 1373.75 636 1387 636C1400.25 636 1411 625.256 1411 612C1411 598.744 1400.25 588 1387 588ZM1398.71 622.597C1398.32 623.28 1397.61 623.664 1396.88 623.664C1396.54 623.664 1396.19 623.579 1395.87 623.399C1392.87 621.719 1389.6 620.689 1386.15 620.34C1382.69 619.993 1379.28 620.344 1376 621.392C1374.91 621.741 1373.73 621.136 1373.38 620.04C1373.03 618.942 1373.63 617.768 1374.73 617.416C1378.56 616.194 1382.55 615.779 1386.57 616.188C1390.6 616.597 1394.41 617.797 1397.91 619.758C1398.91 620.319 1399.27 621.591 1398.71 622.597ZM1401.58 615.308C1401.21 616.021 1400.48 616.431 1399.73 616.431C1399.4 616.431 1399.08 616.356 1398.77 616.194C1395.08 614.276 1391.11 613.088 1386.93 612.664C1382.73 612.234 1378.57 612.609 1374.55 613.767C1373.44 614.082 1372.29 613.448 1371.97 612.339C1371.65 611.232 1372.29 610.076 1373.4 609.756C1377.93 608.449 1382.63 608.031 1387.36 608.511C1392.05 608.989 1396.54 610.328 1400.7 612.493C1401.72 613.026 1402.12 614.286 1401.58 615.308ZM1402.62 609.243C1402.31 609.243 1401.99 609.172 1401.69 609.024C1397.32 606.844 1392.62 605.487 1387.71 604.989C1382.8 604.487 1377.91 604.875 1373.18 606.138C1372.07 606.433 1370.93 605.773 1370.63 604.659C1370.33 603.546 1370.99 602.401 1372.11 602.104C1377.33 600.711 1382.72 600.287 1388.14 600.837C1393.55 601.384 1398.73 602.883 1403.55 605.288C1404.59 605.802 1405 607.056 1404.49 608.087C1404.13 608.82 1403.39 609.243 1402.62 609.243Z" fill="white"/>
<g clip-path="url(#clip23_2_13477)">
<path d="M1235 259.04C1235 248.179 1235 242.748 1238.37 239.374C1241.75 236 1247.18 236 1258.04 236H1259.96C1270.82 236 1276.25 236 1279.63 239.374C1283 242.748 1283 248.179 1283 259.04V260.96C1283 271.821 1283 277.252 1279.63 280.626C1276.25 284 1270.82 284 1259.96 284H1258.04C1247.18 284 1241.75 284 1238.37 280.626C1235 277.252 1235 271.821 1235 260.96V259.04Z" fill="#0077FF"/>
<path d="M1260.54 270.58C1249.6 270.58 1243.36 263.08 1243.1 250.6H1248.58C1248.76 259.76 1252.8 263.64 1256 264.44V250.6H1261.16V258.5C1264.32 258.16 1267.64 254.56 1268.76 250.6H1273.92C1273.06 255.48 1269.46 259.08 1266.9 260.56C1269.46 261.76 1273.56 264.9 1275.12 270.58H1269.44C1268.22 266.78 1265.18 263.84 1261.16 263.44V270.58H1260.54Z" fill="white"/>
</g>
<g clip-path="url(#clip24_2_13477)">
<path fill-rule="evenodd" clip-rule="evenodd" d="M1238.37 591.374C1235 594.748 1235 600.179 1235 611.04V612.96C1235 623.821 1235 629.252 1238.37 632.626C1241.75 636 1247.18 636 1258.04 636H1259.96C1270.82 636 1276.25 636 1279.63 632.626C1283 629.252 1283 623.821 1283 612.96V611.04C1283 600.179 1283 594.748 1279.63 591.374C1276.25 588 1270.82 588 1259.96 588H1258.04C1247.18 588 1241.75 588 1238.37 591.374ZM1243.1 602.6C1243.36 615.08 1249.6 622.58 1260.54 622.58H1261.16V615.44C1265.18 615.84 1268.22 618.78 1269.44 622.58H1275.12C1273.56 616.9 1269.46 613.76 1266.9 612.56C1269.46 611.08 1273.06 607.48 1273.92 602.6H1268.76C1267.64 606.56 1264.32 610.16 1261.16 610.5V602.6H1256V616.44C1252.8 615.64 1248.76 611.76 1248.58 602.6H1243.1Z" fill="white"/>
</g>
<path d="M1529.56 88.7793L1534.84 83.5059L1510.14 69.2676L1529.56 88.7793ZM1505.13 68.125C1503.99 68.7402 1503.2 69.8828 1503.2 71.2891V110.049C1503.2 111.455 1503.99 112.598 1505.13 113.125L1527.63 90.625L1505.13 68.125ZM1542.48 87.9883L1537.3 85L1531.5 90.625L1537.3 96.3379L1542.57 93.3496C1544.15 92.1191 1544.15 89.2188 1542.48 87.9883ZM1510.14 111.982L1534.84 97.832L1529.56 92.5586L1510.14 111.982Z" fill="#1F2A37"/>
<g clip-path="url(#clip25_2_13477)">
<path d="M1600.25 263.128C1596.91 276.521 1583.34 284.671 1569.95 281.331C1556.56 277.992 1548.41 264.427 1551.75 251.035C1555.09 237.64 1568.65 229.489 1582.04 232.828C1595.44 236.167 1603.59 249.734 1600.25 263.128H1600.25Z" fill="#F7931A"/>
<path d="M1587.02 253.518C1587.52 250.192 1584.98 248.403 1581.52 247.21L1582.64 242.704L1579.9 242.021L1578.81 246.408C1578.09 246.228 1577.35 246.059 1576.61 245.891L1577.71 241.474L1574.97 240.791L1573.85 245.296C1573.25 245.16 1572.66 245.025 1572.09 244.884L1572.1 244.87L1568.31 243.925L1567.59 246.855C1567.59 246.855 1569.62 247.321 1569.58 247.35C1570.69 247.628 1570.89 248.363 1570.86 248.946L1569.58 254.079C1569.65 254.099 1569.75 254.127 1569.86 254.171L1569.57 254.099L1567.78 261.29C1567.64 261.628 1567.3 262.134 1566.52 261.942C1566.55 261.982 1564.53 261.444 1564.53 261.444L1563.16 264.585L1566.74 265.474C1567.4 265.641 1568.05 265.815 1568.69 265.979L1567.55 270.538L1570.29 271.221L1571.42 266.712C1572.17 266.915 1572.89 267.103 1573.6 267.279L1572.48 271.767L1575.23 272.451L1576.36 267.902C1581.04 268.787 1584.56 268.43 1586.04 264.2C1587.23 260.794 1585.98 258.829 1583.52 257.547C1585.31 257.132 1586.66 255.953 1587.02 253.518H1587.02ZM1580.75 262.307C1579.9 265.713 1574.17 263.872 1572.31 263.41L1573.82 257.371C1575.68 257.835 1581.64 258.754 1580.75 262.307H1580.75ZM1581.6 253.469C1580.83 256.567 1576.05 254.993 1574.5 254.607L1575.87 249.131C1577.42 249.517 1582.41 250.237 1581.6 253.469Z" fill="white"/>
</g>
</g>
<defs>
<filter id="filter0_d_2_13477" x="0" y="0" width="1647" height="729" filterUnits="userSpaceOnUse" color-interpolation-filters="sRGB">
<feFlood flood-opacity="0" result="BackgroundImageFix"/>
<feColorMatrix in="SourceAlpha" type="matrix" values="0 0 0 0 0 0 0 0 0 0 0 0 0 0 0 0 0 0 127 0" result="hardAlpha"/>
<feOffset dy="1"/>
<feGaussianBlur stdDeviation="1"/>
<feColorMatrix type="matrix" values="0 0 0 0 0 0 0 0 0 0 0 0 0 0 0 0 0 0 0.08 0"/>
<feBlend mode="normal" in2="BackgroundImageFix" result="effect1_dropShadow_2_13477"/>
<feBlend mode="normal" in="SourceGraphic" in2="effect1_dropShadow_2_13477" result="shape"/>
</filter>
<linearGradient id="paint0_linear_2_13477" x1="875" y1="236" x2="875" y2="283.644" gradientUnits="userSpaceOnUse">
<stop stop-color="#2AABEE"/>
<stop offset="1" stop-color="#229ED9"/>
</linearGradient>
<clipPath id="clip0_2_13477">
<rect width="48" height="48" fill="white" transform="translate(83 60)"/>
</clipPath>
<clipPath id="clip1_2_13477">
<rect width="48" height="48" fill="white" transform="translate(339 60)"/>
</clipPath>
<clipPath id="clip2_2_13477">
<rect width="48" height="48" fill="white" transform="translate(467 60)"/>
</clipPath>
<clipPath id="clip3_2_13477">
<rect width="48" height="48" fill="white" transform="translate(595 60)"/>
</clipPath>
<clipPath id="clip4_2_13477">
<rect width="48" height="48" fill="white" transform="translate(723 60)"/>
</clipPath>
<clipPath id="clip5_2_13477">
<rect width="48" height="48" fill="white" transform="translate(851 60)"/>
</clipPath>
<clipPath id="clip6_2_13477">
<rect width="48" height="48" fill="white" transform="translate(1107 60)"/>
</clipPath>
<clipPath id="clip7_2_13477">
<rect width="48" height="48" fill="white" transform="translate(1363 60)"/>
</clipPath>
<clipPath id="clip8_2_13477">
<rect width="48" height="48" fill="white" transform="translate(83 236)"/>
</clipPath>
<clipPath id="clip9_2_13477">
<rect width="48" height="48" fill="white" transform="translate(339 236)"/>
</clipPath>
<clipPath id="clip10_2_13477">
<rect width="27.2" height="48" fill="white" transform="translate(733 236)"/>
</clipPath>
<clipPath id="clip11_2_13477">
<rect width="48" height="48" fill="white" transform="translate(851 236)"/>
</clipPath>
<clipPath id="clip12_2_13477">
<rect width="50" height="50" fill="white" transform="translate(1471 235)"/>
</clipPath>
<clipPath id="clip13_2_13477">
<rect width="48" height="48" fill="white" transform="translate(83 412)"/>
</clipPath>
<clipPath id="clip14_2_13477">
<rect width="48" height="48" fill="white" transform="translate(211 412)"/>
</clipPath>
<clipPath id="clip15_2_13477">
<rect width="48" height="48" fill="white" transform="translate(339 412)"/>
</clipPath>
<clipPath id="clip16_2_13477">
<rect width="48" height="48" fill="white" transform="translate(467 412)"/>
</clipPath>
<clipPath id="clip17_2_13477">
<rect width="48" height="48" fill="white" transform="translate(595 412)"/>
</clipPath>
<clipPath id="clip18_2_13477">
<rect width="48" height="48" fill="white" transform="translate(851 412)"/>
</clipPath>
<clipPath id="clip19_2_13477">
<rect width="48" height="48" fill="white" transform="translate(1107 412)"/>
</clipPath>
<clipPath id="clip20_2_13477">
<rect width="48" height="48" fill="white" transform="translate(1363 412)"/>
</clipPath>
<clipPath id="clip21_2_13477">
<rect width="27.2" height="48" fill="white" transform="translate(733 588)"/>
</clipPath>
<clipPath id="clip22_2_13477">
<rect width="48" height="48" fill="white" transform="translate(851 588)"/>
</clipPath>
<clipPath id="clip23_2_13477">
<rect width="48" height="48" fill="white" transform="translate(1235 236)"/>
</clipPath>
<clipPath id="clip24_2_13477">
<rect width="48" height="48" fill="white" transform="translate(1235 588)"/>
</clipPath>
<clipPath id="clip25_2_13477">
<rect width="50" height="50" fill="white" transform="translate(1551 232.08)"/>
</clipPath>
</defs>
</svg>
